<?xml version="1.0" standalone="no"?>
<!DOCTYPE svg PUBLIC "-//W3C//DTD SVG 1.1//EN" "http://www.w3.org/Graphics/SVG/1.1/DTD/svg11.dtd" >
<svg xmlns="http://www.w3.org/2000/svg" xmlns:xlink="http://www.w3.org/1999/xlink" version="1.1">
<metadata>
Created by FontForge 20170731 at Wed Feb 19 04:56:37 2014
 By Aleksey,,,
Copyright (c) 2014 by Rene' Bieder. All rights reserved.
</metadata>
<defs>
<font id="Campton-Light" horiz-adv-x="600" >
  <font-face 
    font-family="Campton Light"
    font-weight="400"
    font-stretch="normal"
    units-per-em="1000"
    panose-1="0 0 5 0 0 0 0 0 0 0"
    ascent="800"
    descent="-200"
    x-height="462"
    cap-height="680"
    bbox="-39 -248 1443 961"
    underline-thickness="50"
    underline-position="-200"
    unicode-range="U+0020-FB02"
  />
<missing-glyph horiz-adv-x="870" 
d="M770 680v-680h-670v680h670zM700 610h-481l481 -481v481zM170 70h477l-477 477v-477z" />
    <glyph glyph-name="fi" unicode="fi" horiz-adv-x="664" 
d="M566 462v-462h-68v403h-291v-403h-68v403h-135v59h135v97q0 92 50.5 145t133.5 53q24 0 42.5 -1.5t42 -7t33 -8t43.5 -12.5l-13 -58q-7 2 -23.5 6.5t-22.5 6t-20 4.5t-23.5 4t-23 2t-28.5 1q-57 0 -90 -35.5t-33 -99.5v-97h359z" />
    <glyph glyph-name="fl" unicode="fl" horiz-adv-x="635" 
d="M139 462v121q0 79 45 126.5t119 47.5q48 0 96 -14l-11 -59q-42 10 -73 10q-49 0 -78.5 -30.5t-29.5 -80.5v-121h166v-59h-166v-403h-68v403h-135v59h135zM551 710v-710h-69v710h69z" />
    <glyph glyph-name=".notdef" horiz-adv-x="870" 
d="M770 680v-680h-670v680h670zM700 610h-481l481 -481v481zM170 70h477l-477 477v-477z" />
    <glyph glyph-name=".null" horiz-adv-x="0" 
 />
    <glyph glyph-name="nonmarkingreturn" horiz-adv-x="333" 
 />
    <glyph glyph-name="space" unicode=" " horiz-adv-x="271" 
 />
    <glyph glyph-name="exclam" unicode="!" horiz-adv-x="263" 
d="M162 185h-62l-5 495h72zM131 -8q-20 0 -33.5 13t-13.5 33q0 19 13.5 32t33.5 13t34 -13t14 -32q0 -20 -14 -33t-34 -13z" />
    <glyph glyph-name="quotedbl" unicode="&#x22;" horiz-adv-x="318" 
d="M115 680v-268h-60v268h60zM263 680v-268h-60v268h60z" />
    <glyph glyph-name="numbersign" unicode="#" horiz-adv-x="736" 
d="M513 259h126v-60h-145l-62 -199h-71l63 199h-205l-62 -199h-71l63 199h-108v60h126l49 156h-120v60h139l64 206h71l-65 -206h205l64 206h71l-65 -206h114v-60h-132zM287 415l-49 -156h204l49 156h-204z" />
    <glyph glyph-name="dollar" unicode="$" horiz-adv-x="660" 
d="M303 388l103 -20q189 -36 189 -177q0 -86 -60 -141.5t-160 -63.5v-117h-63v117q-110 8 -176 68t-77 163h70q13 -80 68 -124t148 -44q81 0 129.5 36.5t48.5 97.5q0 93 -128 116l-118 23q-93 17 -140.5 62.5t-47.5 115.5q0 84 61 137t162 58v121h63v-123q91 -10 150 -60.5
t70 -136.5h-70q-12 65 -59.5 101t-130.5 36q-78 0 -124.5 -35t-46.5 -94q0 -91 139 -116z" />
    <glyph glyph-name="percent" unicode="%" horiz-adv-x="1084" 
d="M279 695q80 0 134 -53.5t54 -135.5t-54 -135.5t-134 -53.5t-134 53.5t-54 135.5t54 135.5t134 53.5zM338 0h-53l453 680h53zM279 369q56 0 95 39t39 98t-39 98t-95 39t-95 -39t-39 -98t39 -98t95 -39zM806 363q80 0 134 -53t54 -135q0 -83 -54 -136.5t-134 -53.5
t-134 53.5t-54 136.5q0 82 54 135t134 53zM806 37q56 0 95 39.5t39 98.5t-39 97.5t-95 38.5t-95 -38.5t-39 -97.5t39 -98.5t95 -39.5z" />
    <glyph glyph-name="ampersand" unicode="&#x26;" horiz-adv-x="730" 
d="M608 0l-94 84q-92 -97 -222 -97q-108 0 -173.5 55.5t-65.5 143.5q0 66 39 115.5t102 74.5q-65 72 -65 142q0 78 54.5 127.5t139.5 49.5q81 0 133.5 -47.5t61.5 -131.5h-68q-7 56 -41.5 86.5t-85.5 30.5q-55 0 -89.5 -32.5t-34.5 -84.5q0 -27 9 -50t39.5 -56t51 -51.5
t80.5 -71.5l128 -114l109 156h72l-131 -191l-4 -6l147 -132h-92zM293 48q100 0 175 77l-146 130q-54 47 -84 76q-54 -20 -86 -57.5t-32 -86.5q0 -60 48 -99.5t125 -39.5z" />
    <glyph glyph-name="quotesingle" unicode="'" horiz-adv-x="170" 
d="M115 680v-268h-60v268h60z" />
    <glyph glyph-name="parenleft" unicode="(" horiz-adv-x="346" 
d="M135 304q0 -122 43 -212t130 -169l-43 -45q-199 161 -199 426t199 425l43 -45q-87 -78 -130 -168t-43 -212z" />
    <glyph glyph-name="parenright" unicode=")" horiz-adv-x="346" 
d="M37 684l43 45q200 -161 200 -425t-200 -426l-43 45q88 79 131 169t43 212t-43 212t-131 168z" />
    <glyph glyph-name="asterisk" unicode="*" horiz-adv-x="401" 
d="M350 468l-21 -35l-108 63v-115h-42v115l-107 -63l-21 35l109 66l-109 64l21 37l107 -64v113h42v-113l108 64l21 -37l-109 -64z" />
    <glyph glyph-name="plus" unicode="+" horiz-adv-x="693" 
d="M381 291v-194h-67v194h-197v64h197v194h67v-194h196v-64h-196z" />
    <glyph glyph-name="comma" unicode="," horiz-adv-x="195" 
d="M41 -138l50 133q-31 9 -31 38q0 19 13.5 32.5t33.5 13.5t33.5 -13.5t13.5 -32.5q0 -14 -15 -45l-54 -126h-44z" />
    <glyph glyph-name="hyphen" unicode="-" horiz-adv-x="563" 
d="M446 306v-69h-329v69h329z" />
    <glyph glyph-name="period" unicode="." horiz-adv-x="177" 
d="M88 -13q-19 0 -33 13.5t-14 32.5t14 32.5t33 13.5q20 0 34 -13.5t14 -32.5t-14 -32.5t-34 -13.5z" />
    <glyph glyph-name="slash" unicode="/" horiz-adv-x="403" 
d="M114 -160h-66l266 890h66z" />
    <glyph glyph-name="zero" unicode="0" horiz-adv-x="717" 
d="M359 695q137 0 215 -97.5t78 -257.5t-78 -257.5t-215 -97.5t-215 97.5t-78 257.5t78 257.5t215 97.5zM359 49q104 0 162.5 80t58.5 211t-58.5 211t-162.5 80q-105 0 -163.5 -80t-58.5 -211t58.5 -211t163.5 -80z" />
    <glyph glyph-name="one" unicode="1" horiz-adv-x="506" 
d="M492 59v-59h-443v59h194v542l-182 -63v62l213 80h39v-621h179z" />
    <glyph glyph-name="two" unicode="2" horiz-adv-x="559" 
d="M509 59v-59h-447v37l219 233q55 56 79.5 84t44.5 65.5t20 72.5q0 61 -41 101t-112 40q-66 0 -109.5 -37t-51.5 -100h-70q5 90 66.5 144.5t161.5 54.5q103 0 165 -58t62 -145q0 -59 -35 -111.5t-121 -141.5l-172 -180h341z" />
    <glyph glyph-name="three" unicode="3" horiz-adv-x="563" 
d="M403 345q114 -46 114 -164q0 -85 -64 -139.5t-167 -54.5q-104 0 -167.5 48.5t-72.5 130.5h69q9 -55 53.5 -86.5t117.5 -31.5t118.5 37t45.5 96q0 60 -44 96t-117 36h-56v58h56q63 0 101.5 35.5t38.5 93.5q0 60 -40.5 96t-107.5 36q-61 0 -101 -31.5t-47 -84.5h-69
q7 80 65.5 128.5t149.5 48.5q99 0 158 -53t59 -140q0 -109 -93 -155z" />
    <glyph glyph-name="four" unicode="4" horiz-adv-x="643" 
d="M597 150h-110v-150h-68v150h-366v43l207 487h73l-197 -469h283v221h68v-221h110v-61z" />
    <glyph glyph-name="five" unicode="5" horiz-adv-x="585" 
d="M161 418h138q105 0 168.5 -57.5t63.5 -150.5q0 -96 -67.5 -160.5t-173.5 -64.5q-105 0 -171 52.5t-82 143.5h70q15 -64 61 -99.5t122 -35.5t125 47t49 116q0 66 -47 107t-126 41l-196 -1l1 324h400v-63h-335v-199z" />
    <glyph glyph-name="six" unicode="6" horiz-adv-x="615" 
d="M308 454q109 0 179.5 -65t70.5 -167q0 -103 -70.5 -170t-180.5 -67q-109 0 -180 66.5t-71 168.5q0 74 55 157l215 303h84l-164 -233q33 7 62 7zM307 43q79 0 130 49.5t51 126.5q0 75 -51 124t-130 49q-82 0 -133 -48l-5 -7q-43 -54 -43 -119q0 -76 51 -125.5t130 -49.5z
" />
    <glyph glyph-name="seven" unicode="7" horiz-adv-x="502" 
d="M480 680v-43l-315 -637h-80l305 614h-374v66h464z" />
    <glyph glyph-name="eight" unicode="8" horiz-adv-x="622" 
d="M431 360q64 -23 99 -67.5t35 -105.5q0 -90 -69.5 -146t-184.5 -56t-185 56t-70 146q0 61 35.5 105.5t99.5 67.5q-105 44 -105 150q0 80 63.5 132.5t161.5 52.5t161.5 -52.5t63.5 -132.5q0 -106 -105 -150zM155 507q0 -58 43.5 -93t112.5 -35q68 0 112 35t44 93
q0 55 -44.5 93.5t-111.5 38.5q-68 0 -112 -38t-44 -94zM311 44q79 0 128.5 41.5t49.5 105.5q0 61 -49.5 100t-128.5 39t-128.5 -38.5t-49.5 -100.5q0 -64 49.5 -105.5t128.5 -41.5z" />
    <glyph glyph-name="nine" unicode="9" horiz-adv-x="615" 
d="M308 695q109 0 180 -66.5t71 -168.5q0 -74 -55 -157l-215 -303h-84l164 233q-33 -7 -62 -7q-109 0 -179.5 65t-70.5 167q0 103 70.5 170t180.5 67zM441 336l5 7q43 54 43 119q0 76 -51 125.5t-130 49.5t-130 -49.5t-51 -126.5q0 -75 51 -124t130 -49q82 0 133 48z" />
    <glyph glyph-name="colon" unicode=":" horiz-adv-x="177" 
d="M88 382q-19 0 -33 13.5t-14 32.5t14 32.5t33 13.5q20 0 34 -13.5t14 -32.5t-14 -32.5t-34 -13.5zM88 -13q-20 0 -33.5 13.5t-13.5 32.5t13.5 32.5t33.5 13.5t33.5 -13.5t13.5 -32.5t-13.5 -32.5t-33.5 -13.5z" />
    <glyph glyph-name="semicolon" unicode=";" horiz-adv-x="184" 
d="M92 382q-20 0 -33.5 13.5t-13.5 32.5t13.5 32.5t33.5 13.5t33.5 -13.5t13.5 -32.5t-13.5 -32.5t-33.5 -13.5zM27 -138l49 133q-30 9 -30 38q0 19 13 32.5t33 13.5t33.5 -13t13.5 -33q0 -16 -14 -45l-54 -126h-44z" />
    <glyph glyph-name="less" unicode="&#x3c;" horiz-adv-x="553" 
d="M478 538v-69l-347 -167l347 -167v-69l-422 201v70z" />
    <glyph glyph-name="equal" unicode="=" horiz-adv-x="716" 
d="M599 391h-482v64h482v-64zM599 197h-482v64h482v-64z" />
    <glyph glyph-name="greater" unicode="&#x3e;" horiz-adv-x="553" 
d="M498 267l-422 -201v69l346 167l-346 167v69l422 -201v-70z" />
    <glyph glyph-name="question" unicode="?" horiz-adv-x="567" 
d="M221 189l-6 145h44q70 0 115.5 42.5t45.5 106.5t-43 106.5t-111 42.5q-53 0 -94 -31.5t-51 -81.5h-70q12 79 69.5 126.5t142.5 47.5q97 0 160.5 -59.5t63.5 -149.5q0 -85 -57 -140.5t-151 -59.5l-2 -95h-56zM248 -8q-20 0 -33.5 13t-13.5 33q0 19 13.5 32t33.5 13
t33.5 -13t13.5 -32q0 -20 -13.5 -33t-33.5 -13z" />
    <glyph glyph-name="at" unicode="@" horiz-adv-x="990" 
d="M679 414v-216q0 -109 74 -109q51 0 79 42.5t28 112.5q0 146 -106 247.5t-257 101.5t-258.5 -103.5t-107.5 -252.5q0 -150 107.5 -253t256.5 -103q132 0 233 82l30 -44q-112 -89 -262 -89q-114 0 -209.5 52.5t-152.5 146.5t-57 208q0 173 123 290t297 117
q175 0 295.5 -115t120.5 -283q0 -93 -40.5 -151.5t-119.5 -58.5q-89 0 -119 69q-57 -72 -152 -72q-82 0 -138.5 56.5t-56.5 141.5t56 141t139 56q80 0 135 -53v39h62zM491 89q81 0 129 71q-3 24 -3 50v96q-47 67 -126 67q-58 0 -99.5 -39.5t-41.5 -102.5t41.5 -102.5
t99.5 -39.5z" />
    <glyph glyph-name="A" unicode="A" horiz-adv-x="746" 
d="M551 198h-356l-88 -198h-76l308 685h68l308 -685h-76zM522 263l-149 336l-149 -336h298z" />
    <glyph glyph-name="B" unicode="B" horiz-adv-x="698" 
d="M484 352q76 -12 115.5 -56.5t39.5 -110.5q0 -83 -68 -134t-181 -51h-294v680h287q102 0 161 -46.5t59 -124.5q0 -58 -31 -99.5t-88 -57.5zM167 617v-241h198q81 0 125.5 33t44.5 92q0 53 -42.5 84.5t-116.5 31.5h-209zM167 63h220q83 0 132 36t49 94t-47 89t-132 31h-222
v-250z" />
    <glyph glyph-name="C" unicode="C" horiz-adv-x="808" 
d="M419 54q95 0 161.5 50t88.5 135h73q-24 -114 -112 -183.5t-211 -69.5q-148 0 -250.5 102.5t-102.5 251.5t102.5 251.5t250.5 102.5q123 0 211 -69.5t112 -183.5h-73q-22 85 -88.5 135t-161.5 50q-119 0 -200.5 -82t-81.5 -204t81.5 -204t200.5 -82z" />
    <glyph glyph-name="D" unicode="D" horiz-adv-x="751" 
d="M96 680h236q157 0 257.5 -94t100.5 -241q0 -152 -100 -248.5t-258 -96.5h-236v680zM167 65h165q125 0 205 78.5t80 201.5q0 118 -80 194t-205 76h-165v-550z" />
    <glyph glyph-name="E" unicode="E" horiz-adv-x="632" 
d="M167 615v-244h361v-66h-361v-240h401v-65h-472v680h472v-65h-401z" />
    <glyph glyph-name="F" unicode="F" horiz-adv-x="597" 
d="M167 615v-261h350v-66h-350v-288h-71v680h464v-65h-393z" />
    <glyph glyph-name="G" unicode="G" horiz-adv-x="832" 
d="M744 340h1v-340h-58l-6 145q-37 -75 -104.5 -117t-159.5 -42q-149 0 -250 102.5t-101 247.5q0 152 103.5 255t252.5 103q114 0 204 -64t118 -174h-77q-24 81 -92.5 125.5t-151.5 44.5q-121 0 -203.5 -82.5t-82.5 -207.5q0 -117 80 -199t200 -82q105 0 172.5 66t81.5 170
h-260v65h334z" />
    <glyph glyph-name="H" unicode="H" horiz-adv-x="745" 
d="M649 680v-680h-71v304h-411v-304h-71v680h71v-311h411v311h71z" />
    <glyph glyph-name="I" unicode="I" horiz-adv-x="262" 
d="M167 680v-680h-71v680h71z" />
    <glyph glyph-name="J" unicode="J" horiz-adv-x="595" 
d="M509 680v-435q0 -122 -66.5 -191t-179.5 -69q-99 0 -164 56.5t-78 152.5h72q10 -67 56.5 -105t117.5 -38q76 0 123 52.5t47 142.5v434h72z" />
    <glyph glyph-name="K" unicode="K" horiz-adv-x="704" 
d="M300 318l-133 -140v-178h-71v680h71v-404l390 404h87l-294 -310l330 -370h-91z" />
    <glyph glyph-name="L" unicode="L" horiz-adv-x="578" 
d="M546 64v-64h-450v680h71v-616h379z" />
    <glyph glyph-name="M" unicode="M" horiz-adv-x="849" 
d="M753 680v-680h-71l1 526l-234 -392h-48l-236 393l2 -527h-71v680h55l274 -460l274 460h54z" />
    <glyph glyph-name="N" unicode="N" horiz-adv-x="768" 
d="M672 680v-680h-61l-444 551v-551h-71v680h58l447 -558v558h71z" />
    <glyph glyph-name="O" unicode="O" horiz-adv-x="839" 
d="M420 694q147 0 250.5 -103.5t103.5 -250.5t-103.5 -250.5t-250.5 -103.5t-250.5 103.5t-103.5 250.5t103.5 250.5t250.5 103.5zM420 52q118 0 200 84.5t82 203.5t-82 203.5t-200 84.5q-119 0 -201 -84.5t-82 -203.5t82 -203.5t201 -84.5z" />
    <glyph glyph-name="P" unicode="P" horiz-adv-x="632" 
d="M96 680h237q117 0 188.5 -62t71.5 -163q0 -104 -74 -167.5t-195 -63.5h-157v-224h-71v680zM167 289h163q87 0 140 46t53 120q0 72 -53 116t-140 44h-163v-326z" />
    <glyph glyph-name="Q" unicode="Q" horiz-adv-x="839" 
d="M774 340q0 -95 -46 -175.5t-124 -127.5l127 -157l-52 -48l-141 174q-57 -20 -118 -20q-147 0 -250.5 103.5t-103.5 250.5t103.5 250.5t250.5 103.5t250.5 -103.5t103.5 -250.5zM419 52q119 0 201 84.5t82 203.5t-82 203.5t-201 84.5q-118 0 -200 -84.5t-82 -203.5
t82 -203.5t200 -84.5z" />
    <glyph glyph-name="R" unicode="R" horiz-adv-x="674" 
d="M336 247h-169v-247h-71v680h253q115 0 187 -59t72 -158q0 -82 -51 -137.5t-138 -72.5l218 -253h-89zM167 312h180q85 0 137.5 41t52.5 110q0 70 -52.5 111t-137.5 41h-180v-303z" />
    <glyph glyph-name="S" unicode="S" horiz-adv-x="660" 
d="M330 695q107 0 180 -51t85 -148h-70q-12 65 -59.5 101t-131.5 36q-78 0 -124.5 -35t-46.5 -94q0 -91 140 -116l103 -20q189 -36 189 -177q0 -93 -69.5 -149.5t-183.5 -56.5q-122 0 -196.5 61t-86.5 171h70q13 -80 68 -124t148 -44q81 0 129 36.5t48 97.5q0 93 -128 116
l-118 23q-93 17 -140.5 62.5t-47.5 115.5q0 88 66.5 141.5t175.5 53.5z" />
    <glyph glyph-name="T" unicode="T" horiz-adv-x="635" 
d="M606 615h-253v-615h-71v615h-253v65h577v-65z" />
    <glyph glyph-name="U" unicode="U" horiz-adv-x="750" 
d="M664 680v-391q0 -135 -79.5 -219.5t-209.5 -84.5t-209.5 84.5t-79.5 219.5v391h71v-391q0 -103 60.5 -170.5t157.5 -67.5t158 67.5t61 170.5v391h70z" />
    <glyph glyph-name="V" unicode="V" horiz-adv-x="745" 
d="M720 680l-314 -685h-66l-314 685h78l269 -590l269 590h78z" />
    <glyph glyph-name="W" unicode="W" horiz-adv-x="1066" 
d="M1024 680l-232 -685h-70l-189 561l-190 -561h-69l-233 685h75l193 -578l193 578h62l193 -577l193 577h74z" />
    <glyph glyph-name="X" unicode="X" horiz-adv-x="661" 
d="M553 0l-222 284l-223 -284h-83l259 338l-251 342h87l211 -286l210 286h87l-251 -342l259 -338h-83z" />
    <glyph glyph-name="Y" unicode="Y" horiz-adv-x="664" 
d="M649 680l-281 -437v-243h-71v243l-282 437h79l238 -371l238 371h79z" />
    <glyph glyph-name="Z" unicode="Z" horiz-adv-x="654" 
d="M590 65v-65h-530v37l426 578h-413v65h515v-37l-418 -578h420z" />
    <glyph glyph-name="bracketleft" unicode="[" horiz-adv-x="342" 
d="M157 -57h137v-66h-206v853h206v-65h-137v-722z" />
    <glyph glyph-name="backslash" unicode="\" horiz-adv-x="403" 
d="M102 730l266 -890h-67l-266 890h67z" />
    <glyph glyph-name="bracketright" unicode="]" horiz-adv-x="342" 
d="M33 665v65h206v-853h-206v66h138v722h-138z" />
    <glyph glyph-name="asciicircum" unicode="^" horiz-adv-x="393" 
d="M362 446h-64l-101 181l-102 -181h-64l135 234h61z" />
    <glyph glyph-name="underscore" unicode="_" horiz-adv-x="651" 
d="M41 -129h568v-60h-568v60z" />
    <glyph glyph-name="grave" unicode="`" 
d="M364 564h-64l-93 142h76z" />
    <glyph glyph-name="a" unicode="a" horiz-adv-x="619" 
d="M535 462v-462h-69v51q-67 -64 -167 -64q-99 0 -169 71t-70 173q0 101 70 172t169 71q100 0 167 -64v52h69zM308 47q99 0 158 84v199q-59 84 -158 84q-76 0 -127.5 -54t-51.5 -129q0 -76 51.5 -130t127.5 -54z" />
    <glyph glyph-name="b" unicode="b" horiz-adv-x="619" 
d="M320 474q99 0 169 -71t70 -172t-70 -172t-169 -71q-101 0 -168 64v-52h-68v710h68v-300q67 64 168 64zM311 48q75 0 127 54t52 129q0 76 -52 130t-127 54q-101 0 -159 -87v-194q58 -86 159 -86z" />
    <glyph glyph-name="c" unicode="c" horiz-adv-x="578" 
d="M301 50q56 0 95.5 28.5t50.5 75.5h71q-14 -74 -74 -120.5t-143 -46.5q-104 0 -172.5 70t-68.5 174q0 103 68.5 173t172.5 70q83 0 143 -46.5t74 -120.5h-71q-11 47 -50.5 75.5t-95.5 28.5q-76 0 -124 -52t-48 -128q0 -77 48 -129t124 -52z" />
    <glyph glyph-name="d" unicode="d" horiz-adv-x="619" 
d="M535 710v-710h-69v51q-66 -63 -167 -63q-99 0 -169 71t-70 172t70 172t169 71q101 0 167 -63v299h69zM308 48q99 0 158 84v198q-58 85 -158 85q-76 0 -127.5 -54t-51.5 -130q0 -75 51.5 -129t127.5 -54z" />
    <glyph glyph-name="e" unicode="e" horiz-adv-x="585" 
d="M525 233q0 -20 -1 -29l-4 2v-2h-391q8 -69 54 -113.5t119 -44.5q100 0 134 71h74q-20 -59 -77 -94.5t-133 -35.5q-105 0 -172.5 70t-67.5 174q0 103 67.5 173t172.5 70q98 0 161 -68t64 -173zM298 415q-70 0 -115.5 -45t-53.5 -113h327q-6 71 -48.5 114.5t-109.5 43.5z
" />
    <glyph glyph-name="f" unicode="f" horiz-adv-x="398" 
d="M207 462h186v-59h-186v-403h-68v403h-135v59h135v121q0 79 45 126.5t119 47.5q47 0 95 -14l-10 -59q-42 10 -74 10q-49 0 -78 -30.5t-29 -80.5v-121z" />
    <glyph glyph-name="g" unicode="g" horiz-adv-x="621" 
d="M531 462v-477q0 -104 -63.5 -166t-166.5 -62q-89 0 -152 48t-76 124h71q10 -49 52.5 -79t104.5 -30q73 0 117.5 44.5t44.5 120.5v81q-69 -66 -173 -66q-99 0 -166.5 69.5t-67.5 167.5q0 103 67 172t167 69q104 0 173 -66v50h68zM298 60q106 0 165 87v184q-59 87 -165 87
q-75 0 -124 -52t-49 -129q0 -72 49.5 -124.5t123.5 -52.5z" />
    <glyph glyph-name="h" unicode="h" horiz-adv-x="584" 
d="M323 477q88 0 142.5 -57.5t54.5 -153.5v-266h-69v263q0 71 -38 111t-102 40q-96 0 -159 -86v-328h-68v710h68v-303q68 70 171 70z" />
    <glyph glyph-name="i" unicode="i" horiz-adv-x="266" 
d="M133 591q-20 0 -33.5 13t-13.5 33t13.5 33t33.5 13t33.5 -13.5t13.5 -32.5q0 -20 -13.5 -33t-33.5 -13zM168 462v-462h-69v462h69z" />
    <glyph glyph-name="j" unicode="j" horiz-adv-x="257" 
d="M124 591q-20 0 -33.5 13t-13.5 33q0 19 13.5 32.5t33.5 13.5t33.5 -13t13.5 -33t-13.5 -33t-33.5 -13zM159 462v-453q0 -100 -38 -145t-133 -46l-5 60q60 2 83.5 29.5t23.5 94.5v460h69z" />
    <glyph glyph-name="k" unicode="k" horiz-adv-x="564" 
d="M256 221l-98 -94v-127h-68v710h68v-493l260 245h88l-201 -194l239 -268h-89z" />
    <glyph glyph-name="l" unicode="l" horiz-adv-x="236" 
d="M152 710v-710h-68v710h68z" />
    <glyph glyph-name="m" unicode="m" horiz-adv-x="904" 
d="M650 477q84 0 136 -57.5t52 -153.5v-266h-68v263q0 72 -35 111.5t-97 39.5q-95 0 -148 -89q6 -27 6 -59v-266h-69v263q0 72 -35 111.5t-98 39.5q-87 0 -142 -84v-330h-68v462h68v-52q61 67 154 67q107 0 159 -86q70 86 185 86z" />
    <glyph glyph-name="n" unicode="n" horiz-adv-x="584" 
d="M323 477q88 0 142.5 -57.5t54.5 -153.5v-266h-69v263q0 71 -38 111t-102 40q-96 0 -159 -86v-328h-68v462h68v-55q68 70 171 70z" />
    <glyph glyph-name="o" unicode="o" horiz-adv-x="611" 
d="M306 474q104 0 174.5 -70t70.5 -173q0 -104 -70.5 -175t-174.5 -71t-175 71t-71 175q0 103 71 173t175 70zM306 47q75 0 125.5 53.5t50.5 130.5q0 75 -51 127.5t-125 52.5q-75 0 -126 -52.5t-51 -127.5q0 -77 51 -130.5t126 -53.5z" />
    <glyph glyph-name="p" unicode="p" horiz-adv-x="619" 
d="M320 474q99 0 169 -71t70 -172q0 -102 -70 -173t-169 -71q-101 0 -168 65v-300h-68v710h68v-53q67 65 168 65zM311 47q75 0 127 54t52 130q0 75 -52 129t-127 54q-101 0 -159 -86v-195q58 -86 159 -86z" />
    <glyph glyph-name="q" unicode="q" horiz-adv-x="619" 
d="M535 462v-710h-69v299q-67 -64 -167 -64q-99 0 -169 71t-70 173q0 101 70 172t169 71q100 0 167 -64v52h69zM308 47q99 0 158 84v199q-59 84 -158 84q-76 0 -127.5 -54t-51.5 -129q0 -76 51.5 -130t127.5 -54z" />
    <glyph glyph-name="r" unicode="r" horiz-adv-x="359" 
d="M152 462v-80q68 92 181 92v-65q-117 -3 -181 -107v-302h-68v462h68z" />
    <glyph glyph-name="s" unicode="s" horiz-adv-x="527" 
d="M53 143h64q22 -101 152 -101q57 0 92 22.5t35 59.5q0 30 -21.5 49t-58.5 24l-106 18q-137 22 -137 124q0 62 51 99.5t135 37.5q79 0 136.5 -36.5t63.5 -110.5h-64q-6 45 -41.5 68.5t-94.5 23.5q-54 0 -86 -21.5t-32 -55.5q0 -58 91 -72l92 -16q138 -23 138 -128
q0 -66 -54 -104.5t-140 -38.5q-92 0 -148.5 40.5t-66.5 117.5z" />
    <glyph glyph-name="t" unicode="t" horiz-adv-x="430" 
d="M375 60l11 -59q-56 -16 -100 -16q-160 0 -160 181v237h-123v59h123v171h68v-171h175v-59h-175v-237q0 -62 25 -90t79 -28q34 0 77 12z" />
    <glyph glyph-name="u" unicode="u" horiz-adv-x="584" 
d="M499 462v-462h-68v54q-69 -69 -170 -69q-88 0 -142.5 57t-54.5 153v267h68v-263q0 -72 38.5 -112t102.5 -40q44 0 86 22.5t72 63.5v329h68z" />
    <glyph glyph-name="v" unicode="v" horiz-adv-x="573" 
d="M538 462l-220 -462h-63l-220 462h73l178 -375l178 375h74z" />
    <glyph glyph-name="w" unicode="w" horiz-adv-x="779" 
d="M744 462l-174 -462h-62l-118 352l-119 -352h-62l-174 462h74l130 -355l121 355h60l120 -354l130 354h74z" />
    <glyph glyph-name="x" unicode="x" horiz-adv-x="535" 
d="M420 0l-152 184l-154 -184h-82l190 231l-186 231h84l147 -181l149 181h84l-187 -231l190 -231h-83z" />
    <glyph glyph-name="y" unicode="y" horiz-adv-x="592" 
d="M553 462l-324 -710h-73l102 224l-236 486h74l198 -407l186 407h73z" />
    <glyph glyph-name="z" unicode="z" horiz-adv-x="493" 
d="M445 422l-296 -364h296v-58h-397v35l299 368h-288v59h386v-40z" />
    <glyph glyph-name="braceleft" unicode="{" horiz-adv-x="356" 
d="M208 570v-126q0 -59 -16 -90.5t-57 -45.5q41 -14 57 -45.5t16 -91.5v-126q0 -49 27.5 -79t73.5 -30v-66q-76 0 -122.5 48t-46.5 127v125q0 61 -23 84t-78 23v61q55 0 78 23t23 85v124q0 79 46.5 127t122.5 48v-66q-46 0 -73.5 -30t-27.5 -79z" />
    <glyph glyph-name="bar" unicode="|" horiz-adv-x="311" 
d="M188 730v-890h-65v890h65z" />
    <glyph glyph-name="braceright" unicode="}" horiz-adv-x="362" 
d="M155 444v126q0 49 -27.5 79t-73.5 30v66q76 0 122.5 -48t46.5 -127v-124q0 -62 22.5 -85t78.5 -23v-61q-56 0 -78.5 -23t-22.5 -84v-125q0 -79 -46.5 -127t-122.5 -48v66q46 0 73.5 30t27.5 79v126q0 60 15.5 91.5t56.5 45.5q-41 14 -56.5 45t-15.5 91z" />
    <glyph glyph-name="asciitilde" unicode="~" horiz-adv-x="458" 
d="M349 395h60q0 -39 -16.5 -66t-41 -36.5t-51.5 -7.5t-49 15l-63 43q-28 19 -53 7t-25 -46h-61q0 39 17 66t41.5 36.5t51.5 7.5t48 -15l64 -43q28 -19 53 -7t25 46z" />
    <glyph glyph-name="exclamdown" unicode="&#xa1;" horiz-adv-x="263" 
d="M131 475q20 0 34 -13.5t14 -32.5t-14 -32.5t-34 -13.5t-33.5 13.5t-13.5 32.5t13.5 32.5t33.5 13.5zM95 -213l5 495h62l5 -495h-72z" />
    <glyph glyph-name="cent" unicode="&#xa2;" horiz-adv-x="578" 
d="M301 50q56 0 95.5 28.5t50.5 75.5h71q-13 -67 -63 -111.5t-122 -53.5v-115h-63v115q-93 10 -151.5 78t-58.5 164q0 95 58.5 163t151.5 78v127h63v-127q72 -9 122 -53.5t63 -111.5h-71q-11 47 -50.5 75.5t-95.5 28.5q-76 0 -124 -52t-48 -128q0 -77 48 -129t124 -52z" />
    <glyph glyph-name="sterling" unicode="&#xa3;" horiz-adv-x="630" 
d="M188 60h390v-60h-534v60h75v223h-75v60h75v123q0 103 64.5 166t169.5 63q97 0 159.5 -53.5t73.5 -143.5h-70q-9 63 -52.5 99.5t-110.5 36.5q-74 0 -119.5 -46t-45.5 -122v-123h239v-60h-239v-223z" />
    <glyph glyph-name="yen" unicode="&#xa5;" horiz-adv-x="664" 
d="M382 263h171v-53h-184v-67h184v-53h-184v-90h-72v90h-186v53h186v67h-186v53h172l-268 417h79l238 -371l239 371h79z" />
    <glyph glyph-name="brokenbar" unicode="&#xa6;" horiz-adv-x="311" 
d="M188 336h-65v394h65v-394zM188 -160h-65v394h65v-394z" />
    <glyph glyph-name="section" unicode="&#xa7;" horiz-adv-x="542" 
d="M500 224q0 -89 -91 -124q47 -44 47 -105q0 -71 -52 -112.5t-134 -41.5q-85 0 -139.5 45t-64.5 123h73q7 -49 41 -77.5t89 -28.5q52 0 84 24.5t32 68.5q0 36 -23 59t-82 50l-104 48q-72 33 -103.5 69t-31.5 86q0 89 93 124q-48 42 -48 105q0 71 52 112t134 41
q84 0 138.5 -45t65.5 -122h-74q-6 49 -40 77t-90 28q-51 0 -83 -25t-32 -68q0 -35 23 -58t82 -51l104 -48q71 -34 102.5 -70t31.5 -84zM346 142q37 3 61 24.5t24 56.5q0 30 -22 53t-75 48l-104 49q-4 2 -16.5 8t-18.5 9q-36 -4 -60 -25.5t-24 -56.5q0 -30 22 -53t74 -47
l104 -49q24 -12 35 -17z" />
    <glyph glyph-name="dieresis" unicode="&#xa8;" 
d="M207 659q20 0 34.5 -14t14.5 -34t-14.5 -34t-34.5 -14q-21 0 -35 14t-14 34t14 34t35 14zM394 659q20 0 34.5 -14t14.5 -34t-14.5 -34t-34.5 -14q-21 0 -35 14t-14 34t14 34t35 14z" />
    <glyph glyph-name="copyright" unicode="&#xa9;" horiz-adv-x="859" 
d="M430 695q150 0 257 -102t107 -253t-107 -253t-257 -102t-257 102t-107 253t107 253t257 102zM429 33q128 0 221 89t93 218t-93 218t-221 89t-220.5 -89t-92.5 -218t92.5 -218t220.5 -89zM429 473q-54 0 -92 -39t-38 -95t38 -95t92 -39q42 0 75 23t44 59h55
q-14 -59 -61.5 -95.5t-111.5 -36.5q-77 0 -130.5 53.5t-53.5 130.5q0 78 53.5 131t130.5 53q64 0 111.5 -36.5t61.5 -95.5h-55q-11 36 -44 59t-75 23z" />
    <glyph glyph-name="ordfeminine" unicode="&#xaa;" horiz-adv-x="354" 
d="M179 686q62 0 97.5 -36.5t35.5 -102.5v-177h-49v26q-49 -34 -108 -34q-57 0 -91.5 26.5t-34.5 71.5q0 41 30.5 64t87.5 23h116q0 95 -84 95q-32 0 -56.5 -14t-28.5 -39h-49q4 46 43.5 71.5t90.5 25.5zM157 405q60 0 106 38v65h-118q-69 0 -69 -46q0 -25 21.5 -41
t59.5 -16z" />
    <glyph glyph-name="guillemotleft" unicode="&#xab;" horiz-adv-x="429" 
d="M222 400l-109 -148l109 -148h-68l-109 148l109 148h68zM384 400l-109 -148l109 -148h-68l-110 148l110 148h68z" />
    <glyph glyph-name="registered" unicode="&#xae;" horiz-adv-x="554" 
d="M277 694q97 0 166.5 -66.5t69.5 -163.5t-69.5 -163t-166.5 -66t-166.5 66t-69.5 163t69.5 163.5t166.5 66.5zM277 273q78 0 135.5 56t57.5 135q0 80 -57.5 136t-135.5 56q-79 0 -136.5 -56t-57.5 -136q0 -79 57.5 -135t136.5 -56zM373 506q0 -27 -16.5 -46t-44.5 -25
l67 -79h-41l-64 77h-46v-77h-32v225h94q36 0 59.5 -21t23.5 -54zM228 463h61q22 0 36.5 12t14.5 32q0 19 -14.5 31.5t-36.5 12.5h-61v-88z" />
    <glyph glyph-name="macron" unicode="&#xaf;" 
d="M438 639v-56h-277v56h277z" />
    <glyph glyph-name="degree" unicode="&#xb0;" horiz-adv-x="487" 
d="M243 695q72 0 119.5 -46.5t47.5 -116.5t-47.5 -116.5t-119.5 -46.5q-71 0 -119 46.5t-48 116.5t48 116.5t119 46.5zM243 422q47 0 79.5 32t32.5 78t-32.5 78t-79.5 32q-46 0 -78.5 -32t-32.5 -78t32.5 -78t78.5 -32z" />
    <glyph glyph-name="plusminus" unicode="&#xb1;" horiz-adv-x="693" 
d="M576 324h-195v-159h-67v159h-197v64h197v159h67v-159h195v-64zM576 109v-64h-459v64h459z" />
    <glyph glyph-name="twosuperior" unicode="&#xb2;" horiz-adv-x="359" 
d="M318 352v-46h-269v29l135 135q41 40 57 62t16 47q0 30 -21 49t-56 19q-36 0 -57 -18.5t-23 -50.5h-54q3 54 37.5 85.5t94.5 31.5q62 0 97.5 -32t35.5 -80q0 -33 -18.5 -63.5t-63.5 -74.5l-91 -93h180z" />
    <glyph glyph-name="threesuperior" unicode="&#xb3;" horiz-adv-x="371" 
d="M265 500q60 -25 60 -88q0 -49 -38.5 -80.5t-100.5 -31.5q-60 0 -98 28.5t-45 77.5h54q5 -26 29 -42t61 -16q39 0 62.5 17.5t23.5 46.5q0 30 -23 47t-64 17h-33v44h33q33 0 53.5 18t20.5 46q0 29 -20.5 46.5t-56.5 17.5q-32 0 -52 -15.5t-24 -41.5h-53q5 48 39 76.5
t90 28.5q59 0 94 -31t35 -80q0 -57 -47 -85z" />
    <glyph glyph-name="acute" unicode="&#xb4;" 
d="M415 706l-93 -142h-64l81 142h76z" />
    <glyph glyph-name="paragraph" unicode="&#xb6;" horiz-adv-x="738" 
d="M654 680v-840h-71v778h-137v-778h-71v391h-94q-104 0 -174 63.5t-70 164.5q0 98 70 159.5t174 61.5h373zM375 618h-94q-75 0 -124.5 -44.5t-49.5 -115.5q0 -73 49.5 -118t124.5 -45h94v323z" />
    <glyph glyph-name="periodcentered" unicode="&#xb7;" horiz-adv-x="177" 
d="M88 217q-19 0 -33 13.5t-14 33.5q0 19 14 32t33 13q20 0 34 -13t14 -32q0 -20 -14 -33.5t-34 -13.5z" />
    <glyph glyph-name="cedilla" unicode="&#xb8;" 
d="M288 -215h-60l46 144h68z" />
    <glyph glyph-name="onesuperior" unicode="&#xb9;" horiz-adv-x="310" 
d="M297 354v-46h-267v46h111v272l-105 -29v47l128 39h29v-329h104z" />
    <glyph glyph-name="ordmasculine" unicode="&#xba;" horiz-adv-x="388" 
d="M194 686q69 0 116 -46.5t47 -115.5q0 -70 -47 -117t-116 -47t-116 47t-47 117q0 69 47 115.5t116 46.5zM194 406q48 0 80 34t32 84q0 48 -32 82t-80 34q-49 0 -81 -33.5t-32 -82.5q0 -50 32 -84t81 -34z" />
    <glyph glyph-name="guillemotright" unicode="&#xbb;" horiz-adv-x="429" 
d="M222 252l-109 -148h-68l109 148l-109 148h68zM384 252l-109 -148h-69l110 148l-110 148h69z" />
    <glyph glyph-name="onequarter" unicode="&#xbc;" horiz-adv-x="872" 
d="M688 680l-453 -680h-53l453 680h53zM30 301v46h111v272l-105 -29v47l128 39h29v-329h104v-46h-267zM832 80h-61v-80h-52v80h-213v35l119 266h56l-110 -253h148v117h52v-117h61v-48z" />
    <glyph glyph-name="onehalf" unicode="&#xbd;" horiz-adv-x="869" 
d="M691 680l-453 -680h-53l453 680h53zM30 301v46h111v272l-105 -29v47l128 39h29v-329h104v-46h-267zM828 46v-46h-269v29l135 135q41 40 57 62t16 47q0 30 -21 49t-56 19q-36 0 -57 -18.5t-23 -50.5h-54q3 54 37.5 85.5t94.5 31.5q62 0 97.5 -32t35.5 -80
q0 -33 -18.5 -63.5t-63.5 -74.5l-91 -93h180z" />
    <glyph glyph-name="threequarters" unicode="&#xbe;" horiz-adv-x="865" 
d="M326 409q0 -49 -38.5 -80.5t-100.5 -31.5q-60 0 -98 28.5t-45 77.5h54q5 -26 29 -42t61 -16q39 0 62.5 17.5t23.5 46.5q0 30 -23 47t-64 17h-33v44h33q33 0 53.5 18t20.5 46q0 29 -20.5 46.5t-56.5 17.5q-32 0 -52 -15.5t-24 -41.5h-53q5 48 39 76.5t90 28.5q59 0 94 -31
t35 -80q0 -57 -47 -85q60 -25 60 -88zM681 680l-453 -680h-53l453 680h53zM823 80h-60v-80h-53v80h-213v35l120 266h55l-110 -253h148v117h53v-117h60v-48z" />
    <glyph glyph-name="questiondown" unicode="&#xbf;" horiz-adv-x="567" 
d="M319 549q20 0 33.5 -13t13.5 -33q0 -19 -13.5 -32t-33.5 -13t-33.5 13t-13.5 32q0 20 13.5 33t33.5 13zM346 352l6 -145h-44q-70 0 -115.5 -42.5t-45.5 -106.5t43 -106.5t111 -42.5q53 0 94 31.5t51 81.5h70q-12 -79 -69.5 -126.5t-142.5 -47.5q-97 0 -160.5 59.5
t-63.5 149.5q0 85 57 140.5t151 59.5l2 95h56z" />
    <glyph glyph-name="Agrave" unicode="&#xc0;" horiz-adv-x="746" 
d="M351 758l-93 142h76l81 -142h-64zM552 198h-357l-88 -198h-76l309 685h67l309 -685h-76zM523 263l-150 337l-149 -337h299z" />
    <glyph glyph-name="Aacute" unicode="&#xc1;" horiz-adv-x="746" 
d="M400 758h-64l81 142h76zM552 198h-357l-88 -198h-76l309 685h67l309 -685h-76zM523 263l-150 337l-149 -337h299z" />
    <glyph glyph-name="Acircumflex" unicode="&#xc2;" horiz-adv-x="746" 
d="M282 760h-67l123 144h70l123 -144h-67l-91 100zM552 198h-357l-88 -198h-76l309 685h67l309 -685h-76zM523 263l-150 337l-149 -337h299z" />
    <glyph glyph-name="Atilde" unicode="&#xc3;" horiz-adv-x="746" 
d="M381 795l-42 28q-28 19 -50 9t-22 -39h-56q0 46 25.5 72.5t57.5 25t61 -16.5l42 -27q31 -20 51.5 -10t20.5 40h56q0 -46 -24.5 -73t-56.5 -26.5t-63 17.5zM552 198h-357l-88 -198h-76l309 685h67l309 -685h-76zM523 263l-150 337l-149 -337h299z" />
    <glyph glyph-name="Adieresis" unicode="&#xc4;" horiz-adv-x="746" 
d="M280 769q-21 0 -35 14t-14 34t14 34t35 14q20 0 34.5 -14t14.5 -34t-14.5 -34t-34.5 -14zM467 769q-21 0 -35 14t-14 34t14 34t35 14q20 0 34.5 -14t14.5 -34t-14.5 -34t-34.5 -14zM552 198h-357l-88 -198h-76l309 685h67l309 -685h-76zM523 263l-150 337l-149 -337h299z
" />
    <glyph glyph-name="Aring" unicode="&#xc5;" horiz-adv-x="746" 
d="M373 770q-44 0 -72 27t-28 69t28 68.5t72 26.5t71.5 -26.5t27.5 -68.5t-28 -69t-71 -27zM373 923q-25 0 -41.5 -16.5t-16.5 -40.5q0 -25 16.5 -41.5t41.5 -16.5t41 16.5t16 41.5q0 24 -16 40.5t-41 16.5zM552 198h-357l-88 -198h-76l309 685h67l309 -685h-76zM523 263
l-150 337l-149 -337h299z" />
    <glyph glyph-name="AE" unicode="&#xc6;" horiz-adv-x="1105" 
d="M640 615v-244h361v-66h-361v-240h401v-65h-472v198h-294l-152 -198h-87l525 680h480v-65h-401zM569 263v320l-245 -320h245z" />
    <glyph glyph-name="Ccedilla" unicode="&#xc7;" horiz-adv-x="808" 
d="M419 54q95 0 161.5 50t88.5 135h74q-25 -114 -112.5 -183.5t-211.5 -69.5q-148 0 -250.5 102.5t-102.5 251.5t102.5 251.5t250.5 102.5q124 0 211.5 -69.5t112.5 -183.5h-74q-22 85 -88.5 135t-161.5 50q-119 0 -200 -82t-81 -204t81 -204t200 -82zM395 -71h68l-54 -144
h-60z" />
    <glyph glyph-name="Egrave" unicode="&#xc8;" horiz-adv-x="632" 
d="M308 758l-93 142h76l81 -142h-64zM167 615v-244h361v-66h-361v-240h401v-65h-472v680h472v-65h-401z" />
    <glyph glyph-name="Eacute" unicode="&#xc9;" horiz-adv-x="632" 
d="M357 758h-64l81 142h76zM167 615v-244h361v-66h-361v-240h401v-65h-472v680h472v-65h-401z" />
    <glyph glyph-name="Ecircumflex" unicode="&#xca;" horiz-adv-x="632" 
d="M239 760h-67l123 144h70l123 -144h-67l-91 100zM167 615v-244h361v-66h-361v-240h401v-65h-472v680h472v-65h-401z" />
    <glyph glyph-name="Edieresis" unicode="&#xcb;" horiz-adv-x="632" 
d="M237 769q-21 0 -35 14t-14 34t14 34t35 14q20 0 34.5 -14t14.5 -34t-14.5 -34t-34.5 -14zM424 769q-21 0 -35 14t-14 34t14 34t35 14q20 0 34.5 -14t14.5 -34t-14.5 -34t-34.5 -14zM167 615v-244h361v-66h-361v-240h401v-65h-472v680h472v-65h-401z" />
    <glyph glyph-name="Igrave" unicode="&#xcc;" horiz-adv-x="262" 
d="M173 758h-64l-93 142h76zM167 680v-680h-71v680h71z" />
    <glyph glyph-name="Iacute" unicode="&#xcd;" horiz-adv-x="262" 
d="M251 900l-93 -142h-64l81 142h76zM167 680v-680h-71v680h71z" />
    <glyph glyph-name="Icircumflex" unicode="&#xce;" horiz-adv-x="262" 
d="M131 860l-91 -100h-67l123 144h70l123 -144h-67zM167 680v-680h-71v680h71z" />
    <glyph glyph-name="Idieresis" unicode="&#xcf;" horiz-adv-x="262" 
d="M38 865q20 0 34.5 -14t14.5 -34t-14.5 -34t-34.5 -14q-21 0 -35 14t-14 34t14 34t35 14zM225 865q20 0 34.5 -14t14.5 -34t-14.5 -34t-34.5 -14q-21 0 -35 14t-14 34t14 34t35 14zM167 680v-680h-71v680h71z" />
    <glyph glyph-name="Eth" unicode="&#xd0;" horiz-adv-x="751" 
d="M96 680h236q158 0 258 -94t100 -241q0 -152 -100 -248.5t-258 -96.5h-236v304h-70v65h70v311zM167 65h165q125 0 205 78.5t80 201.5q0 118 -80 194t-205 76h-165v-246h178v-65h-178v-239z" />
    <glyph glyph-name="Ntilde" unicode="&#xd1;" horiz-adv-x="768" 
d="M392 795l-42 28q-28 19 -50 9t-22 -39h-56q0 46 25.5 72.5t57.5 25t61 -16.5l42 -27q31 -20 51.5 -10t20.5 40h56q0 -46 -24.5 -73t-56.5 -26.5t-63 17.5zM672 680v-680h-61l-444 552v-552h-71v680h59l446 -558v558h71z" />
    <glyph glyph-name="Ograve" unicode="&#xd2;" horiz-adv-x="839" 
d="M461 758h-64l-93 142h76zM420 694q147 0 250.5 -103.5t103.5 -250.5t-103.5 -250.5t-250.5 -103.5t-250.5 103.5t-103.5 250.5t103.5 250.5t250.5 103.5zM419 52q119 0 201 84.5t82 203.5t-82 203.5t-201 84.5q-118 0 -200 -84.5t-82 -203.5t82 -203.5t200 -84.5z" />
    <glyph glyph-name="Oacute" unicode="&#xd3;" horiz-adv-x="839" 
d="M540 900l-93 -142h-64l81 142h76zM420 694q147 0 250.5 -103.5t103.5 -250.5t-103.5 -250.5t-250.5 -103.5t-250.5 103.5t-103.5 250.5t103.5 250.5t250.5 103.5zM419 52q119 0 201 84.5t82 203.5t-82 203.5t-201 84.5q-118 0 -200 -84.5t-82 -203.5t82 -203.5t200 -84.5
z" />
    <glyph glyph-name="Ocircumflex" unicode="&#xd4;" horiz-adv-x="839" 
d="M419 860l-91 -100h-67l123 144h70l123 -144h-67zM420 694q147 0 250.5 -103.5t103.5 -250.5t-103.5 -250.5t-250.5 -103.5t-250.5 103.5t-103.5 250.5t103.5 250.5t250.5 103.5zM419 52q119 0 201 84.5t82 203.5t-82 203.5t-201 84.5q-118 0 -200 -84.5t-82 -203.5
t82 -203.5t200 -84.5z" />
    <glyph glyph-name="Otilde" unicode="&#xd5;" horiz-adv-x="839" 
d="M515 877h56q0 -46 -24.5 -73t-56.5 -26.5t-63 17.5l-42 28q-28 19 -50 9t-22 -39h-56q0 46 25.5 72.5t57.5 25t61 -16.5l42 -27q31 -20 51.5 -10t20.5 40zM420 694q147 0 250.5 -103.5t103.5 -250.5t-103.5 -250.5t-250.5 -103.5t-250.5 103.5t-103.5 250.5t103.5 250.5
t250.5 103.5zM419 52q119 0 201 84.5t82 203.5t-82 203.5t-201 84.5q-118 0 -200 -84.5t-82 -203.5t82 -203.5t200 -84.5z" />
    <glyph glyph-name="Odieresis" unicode="&#xd6;" horiz-adv-x="839" 
d="M326 865q20 0 34.5 -14t14.5 -34t-14.5 -34t-34.5 -14q-21 0 -35 14t-14 34t14 34t35 14zM513 865q20 0 34.5 -14t14.5 -34t-14.5 -34t-34.5 -14q-21 0 -35 14t-14 34t14 34t35 14zM420 694q147 0 250.5 -103.5t103.5 -250.5t-103.5 -250.5t-250.5 -103.5t-250.5 103.5
t-103.5 250.5t103.5 250.5t250.5 103.5zM419 52q119 0 201 84.5t82 203.5t-82 203.5t-201 84.5q-118 0 -200 -84.5t-82 -203.5t82 -203.5t200 -84.5z" />
    <glyph glyph-name="multiply" unicode="&#xd7;" horiz-adv-x="663" 
d="M535 160l-46 -45l-157 158l-158 -158l-46 45l158 158l-158 158l46 45l158 -157l157 157l46 -45l-158 -158z" />
    <glyph glyph-name="Oslash" unicode="&#xd8;" horiz-adv-x="839" 
d="M722 656l-53 -64q105 -103 105 -252q0 -147 -103.5 -250.5t-250.5 -103.5q-115 0 -206 66l-58 -70l-44 37l58 70q-104 104 -104 251t103.5 250.5t250.5 103.5q111 0 204 -64l53 63zM137 340q0 -116 77 -199l366 436q-72 51 -161 51q-118 0 -200 -84.5t-82 -203.5zM419 52
q119 0 201 84.5t82 203.5q0 116 -78 199l-366 -436q72 -51 161 -51z" />
    <glyph glyph-name="Ugrave" unicode="&#xd9;" horiz-adv-x="750" 
d="M417 758h-64l-93 142h76zM665 680v-391q0 -135 -80 -219.5t-210 -84.5q-129 0 -209 84.5t-80 219.5v391h71v-391q0 -103 60.5 -170.5t157.5 -67.5t158 67.5t61 170.5v391h71z" />
    <glyph glyph-name="Uacute" unicode="&#xda;" horiz-adv-x="750" 
d="M495 900l-93 -142h-64l81 142h76zM665 680v-391q0 -135 -80 -219.5t-210 -84.5q-129 0 -209 84.5t-80 219.5v391h71v-391q0 -103 60.5 -170.5t157.5 -67.5t158 67.5t61 170.5v391h71z" />
    <glyph glyph-name="Ucircumflex" unicode="&#xdb;" horiz-adv-x="750" 
d="M375 860l-91 -100h-67l123 144h70l123 -144h-67zM665 680v-391q0 -135 -80 -219.5t-210 -84.5q-129 0 -209 84.5t-80 219.5v391h71v-391q0 -103 60.5 -170.5t157.5 -67.5t158 67.5t61 170.5v391h71z" />
    <glyph glyph-name="Udieresis" unicode="&#xdc;" horiz-adv-x="750" 
d="M282 865q20 0 34.5 -14t14.5 -34t-14.5 -34t-34.5 -14q-21 0 -35 14t-14 34t14 34t35 14zM469 865q20 0 34.5 -14t14.5 -34t-14.5 -34t-34.5 -14q-21 0 -35 14t-14 34t14 34t35 14zM665 680v-391q0 -135 -80 -219.5t-210 -84.5q-129 0 -209 84.5t-80 219.5v391h71v-391
q0 -103 60.5 -170.5t157.5 -67.5t158 67.5t61 170.5v391h71z" />
    <glyph glyph-name="Yacute" unicode="&#xdd;" horiz-adv-x="664" 
d="M360 758h-64l81 142h76zM650 680l-281 -437v-243h-72v243h-1l-281 437h79l238 -371l239 371h79z" />
    <glyph glyph-name="Thorn" unicode="&#xde;" horiz-adv-x="632" 
d="M167 571h166q117 0 188.5 -62t71.5 -163q0 -104 -74 -167.5t-195 -63.5h-157v-115h-71v680h71v-109zM167 180h163q87 0 140 46t53 120q0 72 -53 116t-140 44h-163v-326z" />
    <glyph glyph-name="germandbls" unicode="&#xdf;" horiz-adv-x="620" 
d="M554 417l-184 -220q97 -3 157 -54.5t60 -138.5q0 -92 -64 -152t-176 -60q-88 0 -171 35v63q81 -37 170 -37q86 0 130 43t44 106t-44.5 98.5t-115.5 35.5h-90v34l187 228h-310v-398h-69v582q0 77 47.5 124t124.5 47v-66q-47 0 -75 -29t-28 -76v-120h407v-45z" />
    <glyph glyph-name="agrave" unicode="&#xe0;" horiz-adv-x="619" 
d="M296 553l-93 142h76l81 -142h-64zM534 462v-462h-68v51q-67 -64 -167 -64q-99 0 -169 71t-70 173q0 101 70 172t169 71q100 0 167 -64v52h68zM308 47q99 0 158 84v199q-59 84 -158 84q-76 0 -127.5 -54t-51.5 -129q0 -76 51.5 -130t127.5 -54z" />
    <glyph glyph-name="aacute" unicode="&#xe1;" horiz-adv-x="619" 
d="M345 552h-64l81 142h76zM534 462v-462h-68v51q-67 -64 -167 -64q-99 0 -169 71t-70 173q0 101 70 172t169 71q100 0 167 -64v52h68zM308 47q99 0 158 84v199q-59 84 -158 84q-76 0 -127.5 -54t-51.5 -129q0 -76 51.5 -130t127.5 -54z" />
    <glyph glyph-name="acircumflex" unicode="&#xe2;" horiz-adv-x="619" 
d="M227 545h-67l123 144h70l123 -144h-67l-91 100zM534 462v-462h-68v51q-67 -64 -167 -64q-99 0 -169 71t-70 173q0 101 70 172t169 71q100 0 167 -64v52h68zM308 47q99 0 158 84v199q-59 84 -158 84q-76 0 -127.5 -54t-51.5 -129q0 -76 51.5 -130t127.5 -54z" />
    <glyph glyph-name="atilde" unicode="&#xe3;" horiz-adv-x="619" 
d="M340 590l-42 28q-28 19 -50 9t-22 -39h-56q0 46 25.5 72.5t57.5 25t61 -16.5l42 -27q31 -20 51.5 -10t20.5 40h56q0 -46 -24.5 -73t-56.5 -26.5t-63 17.5zM534 462v-462h-68v51q-67 -64 -167 -64q-99 0 -169 71t-70 173q0 101 70 172t169 71q100 0 167 -64v52h68zM308 47
q99 0 158 84v199q-59 84 -158 84q-76 0 -127.5 -54t-51.5 -129q0 -76 51.5 -130t127.5 -54z" />
    <glyph glyph-name="adieresis" unicode="&#xe4;" horiz-adv-x="619" 
d="M225 574q-21 0 -35 14t-14 34t14 34t35 14q20 0 34.5 -14t14.5 -34t-14.5 -34t-34.5 -14zM412 574q-21 0 -35 14t-14 34t14 34t35 14q20 0 34.5 -14t14.5 -34t-14.5 -34t-34.5 -14zM534 462v-462h-68v51q-67 -64 -167 -64q-99 0 -169 71t-70 173q0 101 70 172t169 71
q100 0 167 -64v52h68zM308 47q99 0 158 84v199q-59 84 -158 84q-76 0 -127.5 -54t-51.5 -129q0 -76 51.5 -130t127.5 -54z" />
    <glyph glyph-name="aring" unicode="&#xe5;" horiz-adv-x="619" 
d="M319 545q-44 0 -72 27t-28 69t28 68.5t72 26.5t71.5 -26.5t27.5 -68.5t-28 -69t-71 -27zM319 698q-25 0 -41.5 -16.5t-16.5 -40.5q0 -25 16.5 -41.5t41.5 -16.5t41 16.5t16 41.5q0 24 -16 40.5t-41 16.5zM534 462v-462h-68v51q-67 -64 -167 -64q-99 0 -169 71t-70 173
q0 101 70 172t169 71q100 0 167 -64v52h68zM308 47q99 0 158 84v199q-59 84 -158 84q-76 0 -127.5 -54t-51.5 -129q0 -76 51.5 -130t127.5 -54z" />
    <glyph glyph-name="ae" unicode="&#xe6;" horiz-adv-x="936" 
d="M876 233q0 -20 -1 -29l-4 2v-2h-392q8 -68 54.5 -113t119.5 -45q48 0 83 19t50 52h74q-20 -59 -76.5 -94.5t-132.5 -35.5q-123 0 -193 94q-91 -93 -215 -93q-86 0 -138 39t-52 106q0 59 44 91.5t126 32.5h188q0 155 -138 155q-51 0 -84 -22t-41 -60h-70q9 68 63 104.5
t132 36.5q129 0 180 -98q32 47 83.5 74t114.5 27q98 0 161 -68t64 -173zM479 260v-3h327q-6 71 -48.5 114.5t-109.5 43.5q-68 0 -114 -44t-55 -111zM247 46q104 0 185 80q-16 38 -20 78h-193q-49 0 -74.5 -18t-25.5 -50q0 -39 34 -64.5t94 -25.5z" />
    <glyph glyph-name="ccedilla" unicode="&#xe7;" horiz-adv-x="578" 
d="M301 50q56 0 95.5 28.5t50.5 75.5h71q-14 -74 -74 -120.5t-143 -46.5q-104 0 -172.5 70t-68.5 174q0 103 68.5 173t172.5 70q83 0 143 -46.5t74 -120.5h-71q-11 47 -50.5 75.5t-95.5 28.5q-76 0 -124 -52t-48 -128q0 -77 48 -129t124 -52zM262 -71h68l-54 -144h-60z" />
    <glyph glyph-name="egrave" unicode="&#xe8;" horiz-adv-x="585" 
d="M274 553l-93 142h76l81 -142h-64zM525 233q0 -20 -1 -29l-4 2v-2h-391q8 -69 54 -113.5t119 -44.5q100 0 134 71h74q-20 -59 -77 -94.5t-133 -35.5q-105 0 -172.5 70t-67.5 174q0 103 67.5 173t172.5 70q98 0 161 -68t64 -173zM298 415q-70 0 -115.5 -45t-53.5 -113h327
q-6 71 -48.5 114.5t-109.5 43.5z" />
    <glyph glyph-name="eacute" unicode="&#xe9;" horiz-adv-x="585" 
d="M324 552h-64l81 142h76zM525 233q0 -20 -1 -29l-4 2v-2h-391q8 -69 54 -113.5t119 -44.5q100 0 134 71h74q-20 -59 -77 -94.5t-133 -35.5q-105 0 -172.5 70t-67.5 174q0 103 67.5 173t172.5 70q98 0 161 -68t64 -173zM298 415q-70 0 -115.5 -45t-53.5 -113h327
q-6 71 -48.5 114.5t-109.5 43.5z" />
    <glyph glyph-name="ecircumflex" unicode="&#xea;" horiz-adv-x="585" 
d="M205 545h-67l123 144h70l123 -144h-67l-91 100zM525 233q0 -20 -1 -29l-4 2v-2h-391q8 -69 54 -113.5t119 -44.5q100 0 134 71h74q-20 -59 -77 -94.5t-133 -35.5q-105 0 -172.5 70t-67.5 174q0 103 67.5 173t172.5 70q98 0 161 -68t64 -173zM298 415q-70 0 -115.5 -45
t-53.5 -113h327q-6 71 -48.5 114.5t-109.5 43.5z" />
    <glyph glyph-name="edieresis" unicode="&#xeb;" horiz-adv-x="585" 
d="M204 574q-21 0 -35 14t-14 34t14 34t35 14q20 0 34.5 -14t14.5 -34t-14.5 -34t-34.5 -14zM391 574q-21 0 -35 14t-14 34t14 34t35 14q20 0 34.5 -14t14.5 -34t-14.5 -34t-34.5 -14zM525 233q0 -20 -1 -29l-4 2v-2h-391q8 -69 54 -113.5t119 -44.5q100 0 134 71h74
q-20 -59 -77 -94.5t-133 -35.5q-105 0 -172.5 70t-67.5 174q0 103 67.5 173t172.5 70q98 0 161 -68t64 -173zM298 415q-70 0 -115.5 -45t-53.5 -113h327q-6 71 -48.5 114.5t-109.5 43.5z" />
    <glyph glyph-name="igrave" unicode="&#xec;" horiz-adv-x="267" 
d="M175 553h-64l-93 142h76zM167 462v-462h-68v462h68z" />
    <glyph glyph-name="iacute" unicode="&#xed;" horiz-adv-x="267" 
d="M254 694l-93 -142h-64l81 142h76zM167 462v-462h-68v462h68z" />
    <glyph glyph-name="icircumflex" unicode="&#xee;" horiz-adv-x="267" 
d="M133 645l-91 -100h-67l123 144h70l123 -144h-67zM167 462v-462h-68v462h68z" />
    <glyph glyph-name="idieresis" unicode="&#xef;" horiz-adv-x="267" 
d="M41 670q20 0 34.5 -14t14.5 -34t-14.5 -34t-34.5 -14q-21 0 -35 14t-14 34t14 34t35 14zM228 670q20 0 34.5 -14t14.5 -34t-14.5 -34t-34.5 -14q-21 0 -35 14t-14 34t14 34t35 14zM167 462v-462h-68v462h68z" />
    <glyph glyph-name="eth" unicode="&#xf0;" horiz-adv-x="594" 
d="M440 627l-56 -21q78 -69 122.5 -165.5t44.5 -209.5q0 -104 -70.5 -175t-174.5 -71t-175 71t-71 175q0 103 71 173t175 70q77 0 138 -51q-41 93 -126 159l-163 -60l-17 48l129 48q-54 32 -121 57l73 30q59 -21 118 -61l85 31zM306 47q75 0 125.5 53.5t50.5 130.5
q0 75 -51 127.5t-125 52.5q-75 0 -126 -52.5t-51 -127.5q0 -77 51 -130.5t126 -53.5z" />
    <glyph glyph-name="ntilde" unicode="&#xf1;" horiz-adv-x="584" 
d="M322 590l-42 28q-28 19 -50 9t-22 -39h-56q0 46 25.5 72.5t57.5 25t61 -16.5l42 -27q31 -20 51.5 -10t20.5 40h56q0 -46 -24.5 -73t-56.5 -26.5t-63 17.5zM323 477q88 0 142.5 -57.5t54.5 -153.5v-266h-68v263q0 71 -38.5 111t-102.5 40q-96 0 -159 -86v-328h-68v462h68
v-55q68 70 171 70z" />
    <glyph glyph-name="ograve" unicode="&#xf2;" horiz-adv-x="611" 
d="M348 553h-64l-93 142h76zM306 474q104 0 174.5 -70t70.5 -173q0 -104 -70.5 -175t-174.5 -71t-175 71t-71 175q0 103 71 173t175 70zM306 47q75 0 126 53.5t51 130.5q0 75 -51 127.5t-126 52.5t-126 -52.5t-51 -127.5q0 -77 51 -130.5t126 -53.5z" />
    <glyph glyph-name="oacute" unicode="&#xf3;" horiz-adv-x="611" 
d="M426 694l-93 -142h-64l81 142h76zM306 474q104 0 174.5 -70t70.5 -173q0 -104 -70.5 -175t-174.5 -71t-175 71t-71 175q0 103 71 173t175 70zM306 47q75 0 126 53.5t51 130.5q0 75 -51 127.5t-126 52.5t-126 -52.5t-51 -127.5q0 -77 51 -130.5t126 -53.5z" />
    <glyph glyph-name="ocircumflex" unicode="&#xf4;" horiz-adv-x="611" 
d="M306 645l-91 -100h-67l123 144h70l123 -144h-67zM306 474q104 0 174.5 -70t70.5 -173q0 -104 -70.5 -175t-174.5 -71t-175 71t-71 175q0 103 71 173t175 70zM306 47q75 0 126 53.5t51 130.5q0 75 -51 127.5t-126 52.5t-126 -52.5t-51 -127.5q0 -77 51 -130.5t126 -53.5z
" />
    <glyph glyph-name="otilde" unicode="&#xf5;" horiz-adv-x="611" 
d="M415 672h56q0 -46 -24.5 -73t-56.5 -26.5t-63 17.5l-42 28q-28 19 -50 9t-22 -39h-56q0 46 25.5 72.5t57.5 25t61 -16.5l42 -27q31 -20 51.5 -10t20.5 40zM306 474q104 0 174.5 -70t70.5 -173q0 -104 -70.5 -175t-174.5 -71t-175 71t-71 175q0 103 71 173t175 70zM306 47
q75 0 126 53.5t51 130.5q0 75 -51 127.5t-126 52.5t-126 -52.5t-51 -127.5q0 -77 51 -130.5t126 -53.5z" />
    <glyph glyph-name="odieresis" unicode="&#xf6;" horiz-adv-x="611" 
d="M213 670q20 0 34.5 -14t14.5 -34t-14.5 -34t-34.5 -14q-21 0 -35 14t-14 34t14 34t35 14zM400 670q20 0 34.5 -14t14.5 -34t-14.5 -34t-34.5 -14q-21 0 -35 14t-14 34t14 34t35 14zM306 474q104 0 174.5 -70t70.5 -173q0 -104 -70.5 -175t-174.5 -71t-175 71t-71 175
q0 103 71 173t175 70zM306 47q75 0 126 53.5t51 130.5q0 75 -51 127.5t-126 52.5t-126 -52.5t-51 -127.5q0 -77 51 -130.5t126 -53.5z" />
    <glyph glyph-name="divide" unicode="&#xf7;" horiz-adv-x="693" 
d="M347 464q-19 0 -32.5 13t-13.5 32t13.5 32t32.5 13t32.5 -13t13.5 -32t-13.5 -32t-32.5 -13zM117 355h459v-64h-459v64zM347 94q-20 0 -33 12.5t-13 31.5t13 32t33 13q19 0 32.5 -13t13.5 -32t-13.5 -31.5t-32.5 -12.5z" />
    <glyph glyph-name="oslash" unicode="&#xf8;" horiz-adv-x="611" 
d="M508 442l-30 -36q73 -71 73 -175t-70.5 -175t-174.5 -71q-80 0 -143 44l-33 -39l-38 32l33 40q-65 68 -65 169q0 103 71 173t175 70q72 0 133 -37l31 37zM129 231q0 -67 40 -117l228 272q-41 25 -91 25q-75 0 -126 -52.5t-51 -127.5zM306 47q75 0 126 53.5t51 130.5
q0 73 -48 124l-230 -276q45 -32 101 -32z" />
    <glyph glyph-name="ugrave" unicode="&#xf9;" horiz-adv-x="584" 
d="M264 553l-93 142h76l81 -142h-64zM499 462v-462h-68v54q-69 -69 -170 -69q-88 0 -142.5 57t-54.5 153v267h68v-263q0 -72 38.5 -112t102.5 -40q44 0 86 22.5t72 63.5v329h68z" />
    <glyph glyph-name="uacute" unicode="&#xfa;" horiz-adv-x="584" 
d="M313 552h-64l81 142h76zM499 462v-462h-68v54q-69 -69 -170 -69q-88 0 -142.5 57t-54.5 153v267h68v-263q0 -72 38.5 -112t102.5 -40q44 0 86 22.5t72 63.5v329h68z" />
    <glyph glyph-name="ucircumflex" unicode="&#xfb;" horiz-adv-x="584" 
d="M195 545h-67l123 144h70l123 -144h-67l-91 100zM499 462v-462h-68v54q-69 -69 -170 -69q-88 0 -142.5 57t-54.5 153v267h68v-263q0 -72 38.5 -112t102.5 -40q44 0 86 22.5t72 63.5v329h68z" />
    <glyph glyph-name="udieresis" unicode="&#xfc;" horiz-adv-x="584" 
d="M193 574q-21 0 -35 14t-14 34t14 34t35 14q20 0 34.5 -14t14.5 -34t-14.5 -34t-34.5 -14zM380 574q-21 0 -35 14t-14 34t14 34t35 14q20 0 34.5 -14t14.5 -34t-14.5 -34t-34.5 -14zM499 462v-462h-68v54q-69 -69 -170 -69q-88 0 -142.5 57t-54.5 153v267h68v-263
q0 -72 38.5 -112t102.5 -40q44 0 86 22.5t72 63.5v329h68z" />
    <glyph glyph-name="yacute" unicode="&#xfd;" horiz-adv-x="592" 
d="M320 552h-64l81 142h76zM552 462l-323 -710h-73l102 224l-236 486h74l198 -407l185 407h73z" />
    <glyph glyph-name="thorn" unicode="&#xfe;" horiz-adv-x="615" 
d="M320 474q99 0 169 -71t70 -172q0 -102 -70 -173t-169 -71q-101 0 -168 65v-300h-68v928h68v-271q67 65 168 65zM311 47q75 0 127 54t52 130q0 75 -52 129t-127 54q-101 0 -159 -86v-195q58 -86 159 -86z" />
    <glyph glyph-name="ydieresis" unicode="&#xff;" horiz-adv-x="592" 
d="M200 574q-21 0 -35 14t-14 34t14 34t35 14q20 0 34.5 -14t14.5 -34t-14.5 -34t-34.5 -14zM387 574q-21 0 -35 14t-14 34t14 34t35 14q20 0 34.5 -14t14.5 -34t-14.5 -34t-34.5 -14zM552 462l-323 -710h-73l102 224l-236 486h74l198 -407l185 407h73z" />
    <glyph glyph-name="Amacron" unicode="&#x100;" horiz-adv-x="746" 
d="M511 769h-277v56h277v-56zM552 198h-357l-88 -198h-76l309 685h67l309 -685h-76zM523 263l-150 337l-149 -337h299z" />
    <glyph glyph-name="amacron" unicode="&#x101;" horiz-adv-x="619" 
d="M456 572h-277v56h277v-56zM534 462v-462h-68v51q-67 -64 -167 -64q-99 0 -169 71t-70 173q0 101 70 172t169 71q100 0 167 -64v52h68zM308 47q99 0 158 84v199q-59 84 -158 84q-76 0 -127.5 -54t-51.5 -129q0 -76 51.5 -130t127.5 -54z" />
    <glyph glyph-name="Abreve" unicode="&#x102;" horiz-adv-x="746" 
d="M373 764q-61 0 -101.5 36t-40.5 103h52q0 -45 26.5 -68t63.5 -23t63.5 23t26.5 68h52q0 -67 -40.5 -103t-101.5 -36zM552 198h-357l-88 -198h-76l309 685h67l309 -685h-76zM523 263l-150 337l-149 -337h299z" />
    <glyph glyph-name="abreve" unicode="&#x103;" horiz-adv-x="619" 
d="M318 540q-61 0 -101.5 36t-40.5 103h52q0 -45 26.5 -68t63.5 -23t63.5 23t26.5 68h52q0 -67 -40.5 -103t-101.5 -36zM534 462v-462h-68v51q-67 -64 -167 -64q-99 0 -169 71t-70 173q0 101 70 172t169 71q100 0 167 -64v52h68zM308 47q99 0 158 84v199q-59 84 -158 84
q-76 0 -127.5 -54t-51.5 -129q0 -76 51.5 -130t127.5 -54z" />
    <glyph glyph-name="Aogonek" unicode="&#x104;" horiz-adv-x="746" 
d="M727 -128l7 -53q-19 -7 -50 -7q-58 0 -93 29t-35 76q0 63 76 101l-80 180h-357l-88 -198h-76l309 685h67l309 -685h-22q-79 -26 -79 -76q0 -26 20.5 -41t57.5 -15q12 0 34 4zM523 263l-150 337l-149 -337h299z" />
    <glyph glyph-name="aogonek" unicode="&#x105;" horiz-adv-x="619" 
d="M562 -130l7 -53q-19 -7 -50 -7q-58 0 -93 29t-35 76q0 63 75 101v35q-67 -64 -167 -64q-99 0 -169 71t-70 173q0 101 70 172t169 71q100 0 167 -64v52h68v-459l1 -3q-85 -27 -85 -78q0 -26 20.5 -41t57.5 -15q12 0 34 4zM308 47q99 0 158 84v199q-59 84 -158 84
q-76 0 -127.5 -54t-51.5 -129q0 -76 51.5 -130t127.5 -54z" />
    <glyph glyph-name="Cacute" unicode="&#x106;" horiz-adv-x="808" 
d="M447 758h-64l81 142h76zM419 54q95 0 161.5 50t88.5 135h74q-25 -114 -112.5 -183.5t-211.5 -69.5q-148 0 -250.5 102.5t-102.5 251.5t102.5 251.5t250.5 102.5q124 0 211.5 -69.5t112.5 -183.5h-74q-22 85 -88.5 135t-161.5 50q-119 0 -200 -82t-81 -204t81 -204
t200 -82z" />
    <glyph glyph-name="cacute" unicode="&#x107;" horiz-adv-x="578" 
d="M325 552h-64l81 142h76zM301 50q56 0 95.5 28.5t50.5 75.5h71q-14 -74 -74 -120.5t-143 -46.5q-104 0 -172.5 70t-68.5 174q0 103 68.5 173t172.5 70q83 0 143 -46.5t74 -120.5h-71q-11 47 -50.5 75.5t-95.5 28.5q-76 0 -124 -52t-48 -128q0 -77 48 -129t124 -52z" />
    <glyph glyph-name="Cdotaccent" unicode="&#x10a;" horiz-adv-x="808" 
d="M420 769q-20 0 -34.5 14t-14.5 34t14.5 34t34.5 14t34.5 -14t14.5 -34t-14.5 -34t-34.5 -14zM419 54q95 0 161.5 50t88.5 135h74q-25 -114 -112.5 -183.5t-211.5 -69.5q-148 0 -250.5 102.5t-102.5 251.5t102.5 251.5t250.5 102.5q124 0 211.5 -69.5t112.5 -183.5h-74
q-22 85 -88.5 135t-161.5 50q-119 0 -200 -82t-81 -204t81 -204t200 -82z" />
    <glyph glyph-name="cdotaccent" unicode="&#x10b;" horiz-adv-x="578" 
d="M297 574q-20 0 -34.5 14t-14.5 34t14.5 34t34.5 14t34.5 -14t14.5 -34t-14.5 -34t-34.5 -14zM301 50q56 0 95.5 28.5t50.5 75.5h71q-14 -74 -74 -120.5t-143 -46.5q-104 0 -172.5 70t-68.5 174q0 103 68.5 173t172.5 70q83 0 143 -46.5t74 -120.5h-71q-11 47 -50.5 75.5
t-95.5 28.5q-76 0 -124 -52t-48 -128q0 -77 48 -129t124 -52z" />
    <glyph glyph-name="Ccaron" unicode="&#x10c;" horiz-adv-x="808" 
d="M385 756l-123 144h67l91 -101l91 101h67l-123 -144h-70zM419 54q95 0 161.5 50t88.5 135h74q-25 -114 -112.5 -183.5t-211.5 -69.5q-148 0 -250.5 102.5t-102.5 251.5t102.5 251.5t250.5 102.5q124 0 211.5 -69.5t112.5 -183.5h-74q-22 85 -88.5 135t-161.5 50
q-119 0 -200 -82t-81 -204t81 -204t200 -82z" />
    <glyph glyph-name="ccaron" unicode="&#x10d;" horiz-adv-x="578" 
d="M262 545l-123 144h67l91 -101l91 101h67l-123 -144h-70zM301 50q56 0 95.5 28.5t50.5 75.5h71q-14 -74 -74 -120.5t-143 -46.5q-104 0 -172.5 70t-68.5 174q0 103 68.5 173t172.5 70q83 0 143 -46.5t74 -120.5h-71q-11 47 -50.5 75.5t-95.5 28.5q-76 0 -124 -52t-48 -128
q0 -77 48 -129t124 -52z" />
    <glyph glyph-name="Dcaron" unicode="&#x10e;" horiz-adv-x="751" 
d="M310 756l-123 144h67l91 -101l91 101h67l-123 -144h-70zM96 680h236q158 0 258 -94t100 -241q0 -152 -100 -248.5t-258 -96.5h-236v680zM167 65h165q125 0 205 78.5t80 201.5q0 118 -80 194t-205 76h-165v-550z" />
    <glyph glyph-name="dcaron" unicode="&#x10f;" horiz-adv-x="619" 
d="M466 710h68v-710h-68v51q-66 -63 -167 -63q-99 0 -169 71t-70 172t70 172t169 71q101 0 167 -63v299zM707 710l-26 -185h-53l10 185h69zM308 48q99 0 158 84v198q-58 85 -158 85q-76 0 -127.5 -54t-51.5 -130q0 -75 51.5 -129t127.5 -54z" />
    <glyph glyph-name="Dcroat" unicode="&#x110;" horiz-adv-x="751" 
d="M96 680h236q158 0 258 -94t100 -241q0 -152 -100 -248.5t-258 -96.5h-236v304h-70v65h70v311zM167 65h165q125 0 205 78.5t80 201.5q0 118 -80 194t-205 76h-165v-246h178v-65h-178v-239z" />
    <glyph glyph-name="dcroat" unicode="&#x111;" horiz-adv-x="619" 
d="M573 574h-39v-574h-68v51q-66 -63 -167 -63q-99 0 -169 71t-70 172t70 172t169 71q101 0 167 -63v163h-195v57h195v79h68v-79h39v-57zM308 48q99 0 158 84v198q-58 85 -158 85q-76 0 -127.5 -54t-51.5 -130q0 -75 51.5 -129t127.5 -54z" />
    <glyph glyph-name="Emacron" unicode="&#x112;" horiz-adv-x="632" 
d="M468 769h-277v56h277v-56zM167 615v-244h361v-66h-361v-240h401v-65h-472v680h472v-65h-401z" />
    <glyph glyph-name="emacron" unicode="&#x113;" horiz-adv-x="585" 
d="M435 572h-277v56h277v-56zM525 233q0 -20 -1 -29l-4 2v-2h-391q8 -69 54 -113.5t119 -44.5q100 0 134 71h74q-20 -59 -77 -94.5t-133 -35.5q-105 0 -172.5 70t-67.5 174q0 103 67.5 173t172.5 70q98 0 161 -68t64 -173zM298 415q-70 0 -115.5 -45t-53.5 -113h327
q-6 71 -48.5 114.5t-109.5 43.5z" />
    <glyph glyph-name="Edotaccent" unicode="&#x116;" horiz-adv-x="632" 
d="M330 769q-20 0 -34.5 14t-14.5 34t14.5 34t34.5 14t34.5 -14t14.5 -34t-14.5 -34t-34.5 -14zM167 615v-244h361v-66h-361v-240h401v-65h-472v680h472v-65h-401z" />
    <glyph glyph-name="edotaccent" unicode="&#x117;" horiz-adv-x="585" 
d="M297 574q-20 0 -34.5 14t-14.5 34t14.5 34t34.5 14t34.5 -14t14.5 -34t-14.5 -34t-34.5 -14zM525 233q0 -20 -1 -29l-4 2v-2h-391q8 -69 54 -113.5t119 -44.5q100 0 134 71h74q-20 -59 -77 -94.5t-133 -35.5q-105 0 -172.5 70t-67.5 174q0 103 67.5 173t172.5 70
q98 0 161 -68t64 -173zM298 415q-70 0 -115.5 -45t-53.5 -113h327q-6 71 -48.5 114.5t-109.5 43.5z" />
    <glyph glyph-name="Eogonek" unicode="&#x118;" horiz-adv-x="632" 
d="M596 -130l7 -53q-19 -7 -50 -7q-58 0 -93 29t-35 76q0 50 49 85h-378v680h472v-65h-401v-244h361v-66h-361v-240h401v-62l1 -3q-85 -27 -85 -78q0 -26 20.5 -41t57.5 -15q12 0 34 4z" />
    <glyph glyph-name="eogonek" unicode="&#x119;" horiz-adv-x="585" 
d="M525 233q0 -20 -1 -29l-4 2v-2h-391q8 -69 54 -113.5t119 -44.5q100 0 134 71h74q-18 -53 -67 -88q-29 -28 -40.5 -45.5t-11.5 -43.5q0 -28 20.5 -43.5t57.5 -15.5q17 0 35 3l6 -53q-18 -7 -50 -7q-57 0 -92.5 29t-35.5 76q0 33 18 62q-21 -4 -50 -4q-105 0 -172.5 70
t-67.5 174q0 103 67.5 173t172.5 70q98 0 161 -68t64 -173zM298 415q-70 0 -115.5 -45t-53.5 -113h327q-6 71 -48.5 114.5t-109.5 43.5z" />
    <glyph glyph-name="Ecaron" unicode="&#x11a;" horiz-adv-x="632" 
d="M295 756l-123 144h67l91 -101l91 101h67l-123 -144h-70zM167 615v-244h361v-66h-361v-240h401v-65h-472v680h472v-65h-401z" />
    <glyph glyph-name="ecaron" unicode="&#x11b;" horiz-adv-x="585" 
d="M261 545l-123 144h67l91 -101l91 101h67l-123 -144h-70zM525 233q0 -20 -1 -29l-4 2v-2h-391q8 -69 54 -113.5t119 -44.5q100 0 134 71h74q-20 -59 -77 -94.5t-133 -35.5q-105 0 -172.5 70t-67.5 174q0 103 67.5 173t172.5 70q98 0 161 -68t64 -173zM298 415
q-70 0 -115.5 -45t-53.5 -113h327q-6 71 -48.5 114.5t-109.5 43.5z" />
    <glyph glyph-name="Gbreve" unicode="&#x11e;" horiz-adv-x="832" 
d="M421 764q-61 0 -101.5 36t-40.5 103h52q0 -45 26.5 -68t63.5 -23t63.5 23t26.5 68h52q0 -67 -40.5 -103t-101.5 -36zM744 340h1v-340h-58l-6 145q-37 -75 -104.5 -117t-159.5 -42q-149 0 -250 102.5t-101 247.5q0 152 103.5 255t252.5 103q115 0 205 -64t117 -174h-76
q-25 81 -93.5 125.5t-151.5 44.5q-121 0 -203 -82.5t-82 -207.5q0 -117 79.5 -199t199.5 -82q105 0 172.5 66t81.5 170h-260v65h335z" />
    <glyph glyph-name="gbreve" unicode="&#x11f;" horiz-adv-x="621" 
d="M312 540q-61 0 -101.5 36t-40.5 103h52q0 -45 26.5 -68t63.5 -23t63.5 23t26.5 68h52q0 -67 -40.5 -103t-101.5 -36zM531 462v-477q0 -104 -63.5 -166t-166.5 -62q-90 0 -153 48t-75 124h70q11 -49 53.5 -79t104.5 -30q73 0 117 44.5t44 120.5h1v81q-71 -66 -174 -66
q-98 0 -165.5 69.5t-67.5 167.5q0 103 67 172t166 69q103 0 174 -66v50h68zM298 60q106 0 165 87v184q-59 87 -165 87q-75 0 -124 -52t-49 -129q0 -72 49.5 -124.5t123.5 -52.5z" />
    <glyph glyph-name="Gdotaccent" unicode="&#x120;" horiz-adv-x="832" 
d="M421 769q-20 0 -34.5 14t-14.5 34t14.5 34t34.5 14t34.5 -14t14.5 -34t-14.5 -34t-34.5 -14zM744 340h1v-340h-58l-6 145q-37 -75 -104.5 -117t-159.5 -42q-149 0 -250 102.5t-101 247.5q0 152 103.5 255t252.5 103q115 0 205 -64t117 -174h-76q-25 81 -93.5 125.5
t-151.5 44.5q-121 0 -203 -82.5t-82 -207.5q0 -117 79.5 -199t199.5 -82q105 0 172.5 66t81.5 170h-260v65h335z" />
    <glyph glyph-name="gdotaccent" unicode="&#x121;" horiz-adv-x="621" 
d="M312 574q-20 0 -34.5 14t-14.5 34t14.5 34t34.5 14t34.5 -14t14.5 -34t-14.5 -34t-34.5 -14zM531 462v-477q0 -104 -63.5 -166t-166.5 -62q-90 0 -153 48t-75 124h70q11 -49 53.5 -79t104.5 -30q73 0 117 44.5t44 120.5h1v81q-71 -66 -174 -66q-98 0 -165.5 69.5
t-67.5 167.5q0 103 67 172t166 69q103 0 174 -66v50h68zM298 60q106 0 165 87v184q-59 87 -165 87q-75 0 -124 -52t-49 -129q0 -72 49.5 -124.5t123.5 -52.5z" />
    <glyph glyph-name="Gcommaaccent" unicode="&#x122;" horiz-adv-x="832" 
d="M744 340h1v-340h-58l-6 145q-37 -75 -104.5 -117t-159.5 -42q-149 0 -250 102.5t-101 247.5q0 152 103.5 255t252.5 103q115 0 205 -64t117 -174h-76q-25 81 -93.5 125.5t-151.5 44.5q-121 0 -203 -82.5t-82 -207.5q0 -117 79.5 -199t199.5 -82q105 0 172.5 66t81.5 170
h-260v65h335zM410 -66q19 0 32.5 -12.5t13.5 -32.5q0 -14 -7.5 -30.5t-46.5 -95.5h-41l37 88q-34 7 -34 40q0 18 13.5 30.5t32.5 12.5z" />
    <glyph glyph-name="gcommaaccent" unicode="&#x123;" horiz-adv-x="621" 
d="M310 569q-18 0 -32 12.5t-14 32.5q0 12 5 24t31 65q11 23 18 37h41l-37 -88q34 -7 34 -40q0 -18 -13.5 -30.5t-32.5 -12.5zM531 462v-477q0 -104 -63.5 -166t-166.5 -62q-90 0 -153 48t-75 124h70q11 -49 53.5 -79t104.5 -30q73 0 117 44.5t44 120.5h1v81
q-71 -66 -174 -66q-98 0 -165.5 69.5t-67.5 167.5q0 103 67 172t166 69q103 0 174 -66v50h68zM298 60q106 0 165 87v184q-59 87 -165 87q-75 0 -124 -52t-49 -129q0 -72 49.5 -124.5t123.5 -52.5z" />
    <glyph glyph-name="Hbar" unicode="&#x126;" horiz-adv-x="745" 
d="M696 502h-47v-502h-71v304h-411v-304h-71v502h-51v59h51v119h71v-119h411v119h71v-119h47v-59zM578 502h-411v-133h411v133z" />
    <glyph glyph-name="hbar" unicode="&#x127;" horiz-adv-x="578" 
d="M323 477q88 0 142.5 -57.5t54.5 -153.5v-266h-68v263q0 71 -38.5 111t-102.5 40q-96 0 -159 -86v-328h-68v584h-55v51h55v75h68v-75h175v-51h-175v-177q68 70 171 70z" />
    <glyph glyph-name="Imacron" unicode="&#x12a;" horiz-adv-x="262" 
d="M269 825v-56h-277v56h277zM167 680v-680h-71v680h71z" />
    <glyph glyph-name="imacron" unicode="&#x12b;" horiz-adv-x="267" 
d="M272 628v-56h-277v56h277zM167 462v-462h-68v462h68z" />
    <glyph glyph-name="Iogonek" unicode="&#x12e;" horiz-adv-x="262" 
d="M194 -130l7 -53q-19 -7 -50 -7q-58 0 -93 29t-35 76q0 62 73 100v665h71v-680q-85 -27 -85 -78q0 -26 20.5 -41t57.5 -15q12 0 34 4z" />
    <glyph glyph-name="iogonek" unicode="&#x12f;" horiz-adv-x="266" 
d="M133 591q-20 0 -33.5 13t-13.5 33q0 19 13.5 32.5t33.5 13.5t34 -13.5t14 -32.5q0 -20 -14 -33t-34 -13zM195 -130l7 -53q-19 -7 -50 -7q-58 0 -93 29t-35 76q0 63 75 101v446h68v-459l1 -3q-85 -27 -85 -78q0 -26 20.5 -41t57.5 -15q12 0 34 4z" />
    <glyph glyph-name="Idotaccent" unicode="&#x130;" horiz-adv-x="262" 
d="M131 770q-20 0 -35 14.5t-15 34.5q0 21 14.5 35t35.5 14t35.5 -14t14.5 -35q0 -20 -14.5 -34.5t-35.5 -14.5zM167 680v-680h-71v680h71z" />
    <glyph glyph-name="dotlessi" unicode="&#x131;" horiz-adv-x="267" 
d="M168 462v-462h-69v462h69z" />
    <glyph glyph-name="IJ" unicode="&#x132;" horiz-adv-x="857" 
d="M167 680v-680h-71v680h71zM771 680v-435q0 -122 -66.5 -191t-179.5 -69q-99 0 -164 56.5t-78 152.5h72q10 -67 56.5 -105t117.5 -38q76 0 123 52.5t47 142.5v434h72z" />
    <glyph glyph-name="ij" unicode="&#x133;" horiz-adv-x="523" 
d="M133 591q-20 0 -33.5 13t-13.5 33q0 19 13.5 32.5t33.5 13.5t34 -13.5t14 -32.5q0 -20 -14 -33t-34 -13zM390 591q-20 0 -33.5 13t-13.5 33q0 19 13.5 32.5t33.5 13.5t33.5 -13t13.5 -33t-13.5 -33t-33.5 -13zM167 462v-462h-68v462h68zM425 462v-453q0 -100 -38 -145
t-133 -46l-5 60q60 2 83.5 29.5t23.5 94.5v460h69z" />
    <glyph glyph-name="Kcommaaccent" unicode="&#x136;" horiz-adv-x="704" 
d="M679 0h-90l-289 318l-133 -140v-178h-71v680h71v-404l389 404h87l-293 -310zM345 -66q19 0 32.5 -12.5t13.5 -32.5q0 -14 -7.5 -30.5t-46.5 -95.5h-41l37 88q-34 7 -34 40q0 18 13.5 30.5t32.5 12.5z" />
    <glyph glyph-name="kcommaaccent" unicode="&#x137;" horiz-adv-x="564" 
d="M544 0h-89l-199 221l-98 -94v-127h-68v710h68v-493l260 245h88l-201 -194zM286 -66q19 0 32.5 -12.5t13.5 -32.5q0 -14 -7.5 -30.5t-46.5 -95.5h-41l37 88q-34 7 -34 40q0 18 13.5 30.5t32.5 12.5z" />
    <glyph glyph-name="Lacute" unicode="&#x139;" horiz-adv-x="578" 
d="M159 758h-64l81 142h76zM546 64v-64h-450v680h71v-616h379z" />
    <glyph glyph-name="lacute" unicode="&#x13a;" horiz-adv-x="236" 
d="M249 942l-93 -142h-64l81 142h76zM152 710v-710h-68v710h68z" />
    <glyph glyph-name="Lcommaaccent" unicode="&#x13b;" horiz-adv-x="578" 
d="M546 64v-64h-450v680h71v-616h379zM322 -66q19 0 32.5 -12.5t13.5 -32.5q0 -14 -7.5 -30.5t-46.5 -95.5h-41l37 88q-34 7 -34 40q0 18 13.5 30.5t32.5 12.5z" />
    <glyph glyph-name="lcommaaccent" unicode="&#x13c;" horiz-adv-x="236" 
d="M152 710v-710h-68v710h68zM65 -237l37 88q-34 7 -34 40q0 18 13.5 30.5t32.5 12.5t32.5 -12.5t13.5 -32.5q0 -14 -7.5 -30.5t-46.5 -95.5h-41z" />
    <glyph glyph-name="Lcaron" unicode="&#x13d;" horiz-adv-x="578" 
d="M546 64v-64h-450v680h71v-616h379zM377 495h-53l10 185h69z" />
    <glyph glyph-name="lcaron" unicode="&#x13e;" horiz-adv-x="249" 
d="M152 710v-710h-68v710h68zM301 710l-26 -185h-53l10 185h69z" />
    <glyph glyph-name="Ldot" unicode="&#x13f;" horiz-adv-x="578" 
d="M546 64v-64h-450v680h71v-616h379zM372 274q-20 0 -34.5 14t-14.5 34q0 19 14.5 33t34.5 14t34.5 -14t14.5 -33q0 -20 -14.5 -34t-34.5 -14z" />
    <glyph glyph-name="ldot" unicode="&#x140;" horiz-adv-x="339" 
d="M152 710v-710h-68v710h68zM247 269q-20 0 -34.5 14t-14.5 34t14.5 34t34.5 14q21 0 35 -14t14 -34t-14 -34t-35 -14z" />
    <glyph glyph-name="Lslash" unicode="&#x141;" horiz-adv-x="578" 
d="M546 64v-64h-450v248l-75 -37v63l75 37v369h71v-334l160 79v-62l-160 -79v-220h379z" />
    <glyph glyph-name="lslash" unicode="&#x142;" horiz-adv-x="236" 
d="M225 379l-73 -37v-342h-68v308l-72 -36v71l72 36v331h68v-297l73 37v-71z" />
    <glyph glyph-name="Nacute" unicode="&#x143;" horiz-adv-x="768" 
d="M411 758h-64l81 142h76zM672 680v-680h-61l-444 552v-552h-71v680h59l446 -558v558h71z" />
    <glyph glyph-name="nacute" unicode="&#x144;" horiz-adv-x="584" 
d="M328 552h-64l81 142h76zM323 477q88 0 142.5 -57.5t54.5 -153.5v-266h-68v263q0 71 -38.5 111t-102.5 40q-96 0 -159 -86v-328h-68v462h68v-55q68 70 171 70z" />
    <glyph glyph-name="Ncommaaccent" unicode="&#x145;" horiz-adv-x="768" 
d="M672 680v-680h-61l-444 552v-552h-71v680h59l446 -558v558h71zM365 -66q19 0 32.5 -12.5t13.5 -32.5q0 -14 -7.5 -30.5t-46.5 -95.5h-41l37 88q-34 7 -34 40q0 18 13.5 30.5t32.5 12.5z" />
    <glyph glyph-name="ncommaaccent" unicode="&#x146;" horiz-adv-x="584" 
d="M323 477q88 0 142.5 -57.5t54.5 -153.5v-266h-68v263q0 71 -38.5 111t-102.5 40q-96 0 -159 -86v-328h-68v462h68v-55q68 70 171 70zM301 -66q19 0 32.5 -12.5t13.5 -32.5q0 -14 -7.5 -30.5t-46.5 -95.5h-41l37 88q-34 7 -34 40q0 18 13.5 30.5t32.5 12.5z" />
    <glyph glyph-name="Ncaron" unicode="&#x147;" horiz-adv-x="768" 
d="M349 756l-123 144h67l91 -101l91 101h67l-123 -144h-70zM672 680v-680h-61l-444 552v-552h-71v680h59l446 -558v558h71z" />
    <glyph glyph-name="ncaron" unicode="&#x148;" horiz-adv-x="584" 
d="M265 545l-123 144h67l91 -101l91 101h67l-123 -144h-70zM323 477q88 0 142.5 -57.5t54.5 -153.5v-266h-68v263q0 71 -38.5 111t-102.5 40q-96 0 -159 -86v-328h-68v462h68v-55q68 70 171 70z" />
    <glyph glyph-name="Omacron" unicode="&#x14c;" horiz-adv-x="839" 
d="M558 825v-56h-277v56h277zM420 694q147 0 250.5 -103.5t103.5 -250.5t-103.5 -250.5t-250.5 -103.5t-250.5 103.5t-103.5 250.5t103.5 250.5t250.5 103.5zM419 52q119 0 201 84.5t82 203.5t-82 203.5t-201 84.5q-118 0 -200 -84.5t-82 -203.5t82 -203.5t200 -84.5z" />
    <glyph glyph-name="omacron" unicode="&#x14d;" horiz-adv-x="611" 
d="M444 628v-56h-277v56h277zM306 474q104 0 174.5 -70t70.5 -173q0 -104 -70.5 -175t-174.5 -71t-175 71t-71 175q0 103 71 173t175 70zM306 47q75 0 126 53.5t51 130.5q0 75 -51 127.5t-126 52.5t-126 -52.5t-51 -127.5q0 -77 51 -130.5t126 -53.5z" />
    <glyph glyph-name="Ohungarumlaut" unicode="&#x150;" horiz-adv-x="839" 
d="M457 900l-83 -142h-60l71 142h72zM592 900l-84 -142h-59l72 142h71zM420 694q147 0 250.5 -103.5t103.5 -250.5t-103.5 -250.5t-250.5 -103.5t-250.5 103.5t-103.5 250.5t103.5 250.5t250.5 103.5zM419 52q119 0 201 84.5t82 203.5t-82 203.5t-201 84.5
q-118 0 -200 -84.5t-82 -203.5t82 -203.5t200 -84.5z" />
    <glyph glyph-name="ohungarumlaut" unicode="&#x151;" horiz-adv-x="611" 
d="M343 695l-83 -142h-60l71 142h72zM478 695l-84 -142h-59l72 142h71zM306 474q104 0 174.5 -70t70.5 -173q0 -104 -70.5 -175t-174.5 -71t-175 71t-71 175q0 103 71 173t175 70zM306 47q75 0 126 53.5t51 130.5q0 75 -51 127.5t-126 52.5t-126 -52.5t-51 -127.5
q0 -77 51 -130.5t126 -53.5z" />
    <glyph glyph-name="OE" unicode="&#x152;" horiz-adv-x="1025" 
d="M559 615v-244h362v-66h-362v-240h402v-65h-528q-166 0 -273 96.5t-107 243.5t107 243.5t273 96.5h528v-65h-402zM489 67v546l-56 1q-137 0 -222.5 -77t-85.5 -197t85.5 -197t222.5 -77z" />
    <glyph glyph-name="oe" unicode="&#x153;" horiz-adv-x="1008" 
d="M948 233q0 -20 -1 -29l-4 2v-2h-392q8 -68 54.5 -113t119.5 -45q100 0 134 71h73q-20 -59 -76.5 -94.5t-132.5 -35.5q-68 0 -122 31t-85 84q-32 -54 -87.5 -85.5t-122.5 -31.5q-104 0 -175 71t-71 175q0 103 71 173t175 70q66 0 122 -31t88 -84q31 53 85 84t122 31
q98 0 161 -68t64 -173zM720 415q-70 0 -115.5 -45t-53.5 -113h327q-6 71 -48 114.5t-110 43.5zM306 47q75 0 126 53.5t51 130.5q0 75 -51 127.5t-126 52.5t-126 -52.5t-51 -127.5q0 -77 51 -130.5t126 -53.5z" />
    <glyph glyph-name="Racute" unicode="&#x154;" horiz-adv-x="674" 
d="M342 758h-64l81 142h76zM336 247h-169v-247h-71v680h253q116 0 187.5 -59t71.5 -158q0 -82 -50.5 -137.5t-137.5 -72.5l218 -253h-89zM167 312h180q85 0 137.5 41t52.5 110q0 70 -52.5 111t-137.5 41h-180v-303z" />
    <glyph glyph-name="racute" unicode="&#x155;" horiz-adv-x="359" 
d="M226 552h-64l81 142h76zM152 462v-80q68 92 181 92v-65q-117 -3 -181 -107v-302h-68v462h68z" />
    <glyph glyph-name="Rcommaaccent" unicode="&#x156;" horiz-adv-x="674" 
d="M638 0h-89l-213 247h-169v-247h-71v680h253q116 0 187.5 -59t71.5 -158q0 -82 -50.5 -137.5t-137.5 -72.5zM167 312h180q85 0 137.5 41t52.5 110q0 70 -52.5 111t-137.5 41h-180v-303zM325 -66q19 0 32.5 -12.5t13.5 -32.5q0 -14 -7.5 -30.5t-46.5 -95.5h-41l37 88
q-34 7 -34 40q0 18 13.5 30.5t32.5 12.5z" />
    <glyph glyph-name="rcommaaccent" unicode="&#x157;" horiz-adv-x="359" 
d="M152 462v-80q68 92 181 92v-65q-117 -3 -181 -107v-302h-68v462h68zM116 -66q19 0 32.5 -12.5t13.5 -32.5q0 -14 -7.5 -30.5t-46.5 -95.5h-41l37 88q-34 7 -34 40q0 18 13.5 30.5t32.5 12.5z" />
    <glyph glyph-name="Rcaron" unicode="&#x158;" horiz-adv-x="674" 
d="M279 756l-123 144h67l91 -101l91 101h67l-123 -144h-70zM336 247h-169v-247h-71v680h253q116 0 187.5 -59t71.5 -158q0 -82 -50.5 -137.5t-137.5 -72.5l218 -253h-89zM167 312h180q85 0 137.5 41t52.5 110q0 70 -52.5 111t-137.5 41h-180v-303z" />
    <glyph glyph-name="rcaron" unicode="&#x159;" horiz-adv-x="359" 
d="M163 545l-123 144h67l91 -101l91 101h67l-123 -144h-70zM152 462v-80q68 92 181 92v-65q-117 -3 -181 -107v-302h-68v462h68z" />
    <glyph glyph-name="Sacute" unicode="&#x15a;" horiz-adv-x="660" 
d="M451 900l-93 -142h-64l81 142h76zM330 695q108 0 180.5 -51t84.5 -148h-70q-12 65 -59.5 101t-130.5 36q-78 0 -124.5 -35t-46.5 -94q0 -91 139 -116l103 -20q189 -36 189 -177q0 -93 -69.5 -149.5t-183.5 -56.5q-122 0 -196.5 61t-86.5 171h70q13 -80 68 -124t148 -44
q81 0 129.5 36.5t48.5 97.5q0 93 -128 116l-118 23q-93 17 -140.5 62.5t-47.5 115.5q0 88 66.5 141.5t174.5 53.5z" />
    <glyph glyph-name="sacute" unicode="&#x15b;" horiz-adv-x="527" 
d="M384 694l-93 -142h-64l81 142h76zM53 143h64q22 -101 153 -101q57 0 91.5 22.5t34.5 59.5q0 30 -21.5 49t-58.5 24l-105 18q-137 21 -137 124q0 62 51 99.5t134 37.5q79 0 136.5 -36.5t63.5 -110.5h-63q-7 45 -42.5 68.5t-94.5 23.5q-54 0 -86 -21.5t-32 -55.5
q0 -58 91 -72l92 -16q138 -23 138 -128q0 -66 -54 -104.5t-140 -38.5q-91 0 -147.5 40t-67.5 118z" />
    <glyph glyph-name="Scedilla" unicode="&#x15e;" horiz-adv-x="660" 
d="M330 695q108 0 180.5 -51t84.5 -148h-70q-12 65 -59.5 101t-130.5 36q-78 0 -124.5 -35t-46.5 -94q0 -91 139 -116l103 -20q189 -36 189 -177q0 -93 -69.5 -149.5t-183.5 -56.5q-122 0 -196.5 61t-86.5 171h70q13 -80 68 -124t148 -44q81 0 129.5 36.5t48.5 97.5
q0 93 -128 116l-118 23q-93 17 -140.5 62.5t-47.5 115.5q0 88 66.5 141.5t174.5 53.5zM328 -215h-60l46 144h68z" />
    <glyph glyph-name="scedilla" unicode="&#x15f;" horiz-adv-x="527" 
d="M53 143h64q22 -101 153 -101q57 0 91.5 22.5t34.5 59.5q0 30 -21.5 49t-58.5 24l-105 18q-137 21 -137 124q0 62 51 99.5t134 37.5q79 0 136.5 -36.5t63.5 -110.5h-63q-7 45 -42.5 68.5t-94.5 23.5q-54 0 -86 -21.5t-32 -55.5q0 -58 91 -72l92 -16q138 -23 138 -128
q0 -66 -54 -104.5t-140 -38.5q-91 0 -147.5 40t-67.5 118zM250 -215h-60l46 144h68z" />
    <glyph glyph-name="Scaron" unicode="&#x160;" horiz-adv-x="660" 
d="M488 900l-123 -144h-70l-123 144h67l91 -101l91 101h67zM330 695q108 0 180.5 -51t84.5 -148h-70q-12 65 -59.5 101t-130.5 36q-78 0 -124.5 -35t-46.5 -94q0 -91 139 -116l103 -20q189 -36 189 -177q0 -93 -69.5 -149.5t-183.5 -56.5q-122 0 -196.5 61t-86.5 171h70
q13 -80 68 -124t148 -44q81 0 129.5 36.5t48.5 97.5q0 93 -128 116l-118 23q-93 17 -140.5 62.5t-47.5 115.5q0 88 66.5 141.5t174.5 53.5z" />
    <glyph glyph-name="scaron" unicode="&#x161;" horiz-adv-x="527" 
d="M422 689l-123 -144h-70l-123 144h67l91 -101l91 101h67zM53 143h64q22 -101 153 -101q57 0 91.5 22.5t34.5 59.5q0 30 -21.5 49t-58.5 24l-105 18q-137 21 -137 124q0 62 51 99.5t134 37.5q79 0 136.5 -36.5t63.5 -110.5h-63q-7 45 -42.5 68.5t-94.5 23.5
q-54 0 -86 -21.5t-32 -55.5q0 -58 91 -72l92 -16q138 -23 138 -128q0 -66 -54 -104.5t-140 -38.5q-91 0 -147.5 40t-67.5 118z" />
    <glyph glyph-name="Tcedilla" unicode="&#x162;" horiz-adv-x="635" 
d="M606 615h-253v-615h-71v615h-253v65h577v-65zM284 -71h68l-54 -144h-60z" />
    <glyph glyph-name="tcedilla" unicode="&#x163;" horiz-adv-x="430" 
d="M375 60l11 -59q-56 -16 -100 -16q-160 0 -160 181v237h-123v59h123v171h68v-171h175v-59h-175v-237q0 -62 25 -90t78 -28q35 0 78 12zM229 -71h68l-54 -144h-60z" />
    <glyph glyph-name="Tcaron" unicode="&#x164;" horiz-adv-x="635" 
d="M282 756l-123 144h67l91 -101l91 101h67l-123 -144h-70zM606 615h-253v-615h-71v615h-253v65h577v-65z" />
    <glyph glyph-name="tcaron" unicode="&#x165;" horiz-adv-x="430" 
d="M313 527h-53l10 185h69zM375 60l11 -59q-56 -16 -100 -16q-160 0 -160 181v237h-123v59h123v171h68v-171h175v-59h-175v-237q0 -62 25 -90t78 -28q35 0 78 12z" />
    <glyph glyph-name="Umacron" unicode="&#x16a;" horiz-adv-x="750" 
d="M513 825v-56h-277v56h277zM665 680v-391q0 -135 -80 -219.5t-210 -84.5q-129 0 -209 84.5t-80 219.5v391h71v-391q0 -103 60.5 -170.5t157.5 -67.5t158 67.5t61 170.5v391h71z" />
    <glyph glyph-name="umacron" unicode="&#x16b;" horiz-adv-x="584" 
d="M424 572h-277v56h277v-56zM499 462v-462h-68v54q-69 -69 -170 -69q-88 0 -142.5 57t-54.5 153v267h68v-263q0 -72 38.5 -112t102.5 -40q44 0 86 22.5t72 63.5v329h68z" />
    <glyph glyph-name="Uring" unicode="&#x16e;" horiz-adv-x="750" 
d="M376 961q44 0 71.5 -26.5t27.5 -68.5t-28 -69t-71 -27q-44 0 -72 27t-28 69t28 68.5t72 26.5zM376 808q25 0 41 16.5t16 41.5q0 24 -16 40.5t-41 16.5t-41.5 -16.5t-16.5 -40.5q0 -25 16.5 -41.5t41.5 -16.5zM665 680v-391q0 -135 -80 -219.5t-210 -84.5
q-129 0 -209 84.5t-80 219.5v391h71v-391q0 -103 60.5 -170.5t157.5 -67.5t158 67.5t61 170.5v391h71z" />
    <glyph glyph-name="uring" unicode="&#x16f;" horiz-adv-x="584" 
d="M287 545q-44 0 -72 27t-28 69t28 68.5t72 26.5t71.5 -26.5t27.5 -68.5t-28 -69t-71 -27zM287 698q-25 0 -41.5 -16.5t-16.5 -40.5q0 -25 16.5 -41.5t41.5 -16.5t41 16.5t16 41.5q0 24 -16 40.5t-41 16.5zM499 462v-462h-68v54q-69 -69 -170 -69q-88 0 -142.5 57
t-54.5 153v267h68v-263q0 -72 38.5 -112t102.5 -40q44 0 86 22.5t72 63.5v329h68z" />
    <glyph glyph-name="Uhungarumlaut" unicode="&#x170;" horiz-adv-x="750" 
d="M412 900l-83 -142h-60l71 142h72zM547 900l-84 -142h-59l72 142h71zM665 680v-391q0 -135 -80 -219.5t-210 -84.5q-129 0 -209 84.5t-80 219.5v391h71v-391q0 -103 60.5 -170.5t157.5 -67.5t158 67.5t61 170.5v391h71z" />
    <glyph glyph-name="uhungarumlaut" unicode="&#x171;" horiz-adv-x="584" 
d="M240 553h-60l71 142h72zM315 553l72 142h71l-84 -142h-59zM499 462v-462h-68v54q-69 -69 -170 -69q-88 0 -142.5 57t-54.5 153v267h68v-263q0 -72 38.5 -112t102.5 -40q44 0 86 22.5t72 63.5v329h68z" />
    <glyph glyph-name="Uogonek" unicode="&#x172;" horiz-adv-x="750" 
d="M665 680v-391q0 -103 -48 -178.5t-132 -106.5q-76 -49 -76 -95q0 -27 20 -43t56 -16q19 0 35 4l7 -59q-22 -6 -51 -6q-57 0 -91.5 29t-34.5 76t47 92l-22 -1q-129 0 -209 84.5t-80 219.5v391h71v-391q0 -103 60.5 -170.5t157.5 -67.5t158 67.5t61 170.5v391h71z" />
    <glyph glyph-name="uogonek" unicode="&#x173;" horiz-adv-x="584" 
d="M527 -130l7 -53q-19 -7 -50 -7q-58 0 -93 29t-35 76q0 63 75 101v38q-69 -69 -170 -69q-88 0 -142.5 57t-54.5 153v267h68v-263q0 -72 38.5 -112t102.5 -40q44 0 86 22.5t72 63.5v329h68v-459l1 -3q-85 -27 -85 -78q0 -26 20.5 -41t57.5 -15q12 0 34 4z" />
    <glyph glyph-name="Wcircumflex" unicode="&#x174;" horiz-adv-x="1066" 
d="M442 760h-67l123 144h70l123 -144h-67l-91 100zM792 -3v-2h-70l-189 561l-190 -561h-69l-233 685h74l193 -578l194 578h62l193 -577l193 577h74z" />
    <glyph glyph-name="wcircumflex" unicode="&#x175;" horiz-adv-x="779" 
d="M299 545h-67l123 144h70l123 -144h-67l-91 100zM745 462l-174 -462h-62l-119 352l-119 -352h-62l-174 462h74l130 -355l120 355h61l120 -354l131 354h74z" />
    <glyph glyph-name="Ycircumflex" unicode="&#x176;" horiz-adv-x="664" 
d="M241 760h-67l123 144h70l123 -144h-67l-91 100zM650 680l-281 -437v-243h-72v243h-1l-281 437h79l238 -371l239 371h79z" />
    <glyph glyph-name="ycircumflex" unicode="&#x177;" horiz-adv-x="592" 
d="M202 545h-67l123 144h70l123 -144h-67l-91 100zM552 462l-323 -710h-73l102 224l-236 486h74l198 -407l185 407h73z" />
    <glyph glyph-name="Ydieresis" unicode="&#x178;" horiz-adv-x="664" 
d="M239 769q-21 0 -35 14t-14 34t14 34t35 14q20 0 34.5 -14t14.5 -34t-14.5 -34t-34.5 -14zM426 769q-21 0 -35 14t-14 34t14 34t35 14q20 0 34.5 -14t14.5 -34t-14.5 -34t-34.5 -14zM650 680l-281 -437v-243h-72v243h-1l-281 437h79l238 -371l239 371h79z" />
    <glyph glyph-name="Zacute" unicode="&#x179;" horiz-adv-x="654" 
d="M355 758h-64l81 142h76zM590 65v-65h-530v37l426 578h-413v65h515v-37l-2 -1l-416 -577h420z" />
    <glyph glyph-name="zacute" unicode="&#x17a;" horiz-adv-x="493" 
d="M274 552h-64l81 142h76zM445 422l-296 -364h296v-58h-397v35l299 368h-288v59h386v-40z" />
    <glyph glyph-name="Zdotaccent" unicode="&#x17b;" horiz-adv-x="654" 
d="M328 769q-20 0 -34.5 14t-14.5 34t14.5 34t34.5 14t34.5 -14t14.5 -34t-14.5 -34t-34.5 -14zM590 65v-65h-530v37l426 578h-413v65h515v-37l-2 -1l-416 -577h420z" />
    <glyph glyph-name="zdotaccent" unicode="&#x17c;" horiz-adv-x="493" 
d="M247 574q-20 0 -34.5 14t-14.5 34t14.5 34t34.5 14t34.5 -14t14.5 -34t-14.5 -34t-34.5 -14zM445 422l-296 -364h296v-58h-397v35l299 368h-288v59h386v-40z" />
    <glyph glyph-name="Zcaron" unicode="&#x17d;" horiz-adv-x="654" 
d="M292 756l-123 144h67l91 -101l91 101h67l-123 -144h-70zM590 65v-65h-530v37l426 578h-413v65h515v-37l-2 -1l-416 -577h420z" />
    <glyph glyph-name="zcaron" unicode="&#x17e;" horiz-adv-x="493" 
d="M211 545l-123 144h67l91 -101l91 101h67l-123 -144h-70zM445 422l-296 -364h296v-58h-397v35l299 368h-288v59h386v-40z" />
    <glyph glyph-name="florin" unicode="&#x192;" horiz-adv-x="493" 
d="M386 622q-92 0 -107 -111l-20 -144h170v-58h-178l-28 -221q-10 -81 -52.5 -127.5t-113.5 -46.5q-48 0 -96 14l11 59q42 -10 73 -10q93 0 108 111l28 221h-129v58h137l20 144q11 81 52.5 127.5t113.5 46.5q47 0 95 -14l-10 -59q-42 10 -74 10z" />
    <glyph glyph-name="Acaron" unicode="&#x1cd;" horiz-adv-x="746" 
d="M338 756l-123 144h67l91 -101l91 101h67l-123 -144h-70zM552 198h-357l-88 -198h-76l309 685h67l309 -685h-76zM523 263l-150 337l-149 -337h299z" />
    <glyph glyph-name="acaron" unicode="&#x1ce;" horiz-adv-x="619" 
d="M283 545l-123 144h67l91 -101l91 101h67l-123 -144h-70zM534 462v-462h-68v51q-67 -64 -167 -64q-99 0 -169 71t-70 173q0 101 70 172t169 71q100 0 167 -64v52h68zM308 47q99 0 158 84v199q-59 84 -158 84q-76 0 -127.5 -54t-51.5 -129q0 -76 51.5 -130t127.5 -54z" />
    <glyph glyph-name="Scommaaccent" unicode="&#x218;" horiz-adv-x="660" 
d="M330 695q108 0 180.5 -51t84.5 -148h-70q-12 65 -59.5 101t-130.5 36q-78 0 -124.5 -35t-46.5 -94q0 -91 139 -116l103 -20q189 -36 189 -177q0 -93 -69.5 -149.5t-183.5 -56.5q-122 0 -196.5 61t-86.5 171h70q13 -80 68 -124t148 -44q81 0 129.5 36.5t48.5 97.5
q0 93 -128 116l-118 23q-93 17 -140.5 62.5t-47.5 115.5q0 88 66.5 141.5t174.5 53.5zM289 -237l37 88q-34 7 -34 40q0 18 13.5 30.5t32.5 12.5q18 0 32 -12.5t14 -32.5q0 -12 -5 -24t-31 -65q-11 -23 -18 -37h-41z" />
    <glyph glyph-name="scommaaccent" unicode="&#x219;" horiz-adv-x="527" 
d="M53 143h64q22 -101 153 -101q57 0 91.5 22.5t34.5 59.5q0 30 -21.5 49t-58.5 24l-105 18q-137 21 -137 124q0 62 51 99.5t134 37.5q79 0 136.5 -36.5t63.5 -110.5h-63q-7 45 -42.5 68.5t-94.5 23.5q-54 0 -86 -21.5t-32 -55.5q0 -58 91 -72l92 -16q138 -23 138 -128
q0 -66 -54 -104.5t-140 -38.5q-91 0 -147.5 40t-67.5 118zM197 -237l37 88q-34 7 -34 40q0 18 13.5 30.5t32.5 12.5t32.5 -12.5t13.5 -32.5q0 -14 -7.5 -30.5t-46.5 -95.5h-41z" />
    <glyph glyph-name="uni021A" unicode="&#x21a;" horiz-adv-x="635" 
d="M606 615h-253v-615h-71v615h-253v65h577v-65zM306 -66q19 0 32.5 -12.5t13.5 -32.5q0 -14 -7.5 -30.5t-46.5 -95.5h-41l37 88q-34 7 -34 40q0 18 13.5 30.5t32.5 12.5z" />
    <glyph glyph-name="uni021B" unicode="&#x21b;" horiz-adv-x="430" 
d="M375 60l11 -59q-56 -16 -100 -16q-160 0 -160 181v237h-123v59h123v171h68v-171h175v-59h-175v-237q0 -62 25 -90t78 -28q35 0 78 12zM239 -66q19 0 32.5 -12.5t13.5 -32.5q0 -14 -7.5 -30.5t-46.5 -95.5h-41l37 88q-34 7 -34 40q0 18 13.5 30.5t32.5 12.5z" />
    <glyph glyph-name="circumflex" unicode="&#x2c6;" 
d="M300 662l-91 -100h-67l123 144h70l123 -144h-67z" />
    <glyph glyph-name="caron" unicode="&#x2c7;" 
d="M458 706l-123 -144h-70l-123 144h67l91 -101l91 101h67z" />
    <glyph glyph-name="breve" unicode="&#x2d8;" 
d="M390 689h52q0 -67 -40.5 -103t-101.5 -36t-101.5 36t-40.5 103h52q0 -45 26.5 -68t63.5 -23t63.5 23t26.5 68z" />
    <glyph glyph-name="dotaccent" unicode="&#x2d9;" 
d="M300 563q-20 0 -34.5 14t-14.5 34t14.5 34t34.5 14t34.5 -14t14.5 -34t-14.5 -34t-34.5 -14z" />
    <glyph glyph-name="ring" unicode="&#x2da;" 
d="M299 747q44 0 71.5 -26.5t27.5 -68.5t-28 -69t-71 -27q-44 0 -72 27t-28 69t28 68.5t72 26.5zM299 594q25 0 41 16.5t16 41.5q0 24 -16 40.5t-41 16.5t-41.5 -16.5t-16.5 -40.5q0 -25 16.5 -41.5t41.5 -16.5z" />
    <glyph glyph-name="ogonek" unicode="&#x2db;" 
d="M354 34l11 -36q-85 -27 -85 -78q0 -26 20.5 -41t57.5 -15q12 0 34 4l7 -53q-19 -7 -50 -7q-58 0 -93 29t-35 76q0 45 38 76.5t95 44.5z" />
    <glyph glyph-name="tilde" unicode="&#x2dc;" 
d="M396 683h56q0 -46 -24.5 -73t-56.5 -26.5t-63 17.5l-42 28q-28 19 -50 9t-22 -39h-56q0 46 25.5 72.5t57.5 25t61 -16.5l42 -27q31 -20 51.5 -10t20.5 40z" />
    <glyph glyph-name="hungarumlaut" unicode="&#x2dd;" 
d="M342 706l-83 -142h-60l71 142h72zM477 706l-84 -142h-59l72 142h71z" />
    <glyph glyph-name="uni0326" unicode="&#x326;" horiz-adv-x="0" 
d="M240 -237l37 88q-34 7 -34 40q0 18 13.5 30.5t32.5 12.5t32.5 -12.5t13.5 -32.5q0 -14 -7.5 -30.5t-46.5 -95.5h-41z" />
    <glyph glyph-name="Wgrave" unicode="&#x1e80;" horiz-adv-x="1066" 
d="M511 758l-93 142h76l81 -142h-64zM792 -3v-2h-70l-189 561l-190 -561h-69l-233 685h74l193 -578l194 578h62l193 -577l193 577h74z" />
    <glyph glyph-name="wgrave" unicode="&#x1e81;" horiz-adv-x="779" 
d="M368 553l-93 142h76l81 -142h-64zM745 462l-174 -462h-62l-119 352l-119 -352h-62l-174 462h74l130 -355l120 355h61l120 -354l131 354h74z" />
    <glyph glyph-name="Wacute" unicode="&#x1e82;" horiz-adv-x="1066" 
d="M560 758h-64l81 142h76zM792 -3v-2h-70l-189 561l-190 -561h-69l-233 685h74l193 -578l194 578h62l193 -577l193 577h74z" />
    <glyph glyph-name="wacute" unicode="&#x1e83;" horiz-adv-x="779" 
d="M417 552h-64l81 142h76zM745 462l-174 -462h-62l-119 352l-119 -352h-62l-174 462h74l130 -355l120 355h61l120 -354l131 354h74z" />
    <glyph glyph-name="Wdieresis" unicode="&#x1e84;" horiz-adv-x="1066" 
d="M440 769q-21 0 -35 14t-14 34t14 34t35 14q20 0 34.5 -14t14.5 -34t-14.5 -34t-34.5 -14zM627 769q-21 0 -35 14t-14 34t14 34t35 14q20 0 34.5 -14t14.5 -34t-14.5 -34t-34.5 -14zM792 -3v-2h-70l-189 561l-190 -561h-69l-233 685h74l193 -578l194 578h62l193 -577
l193 577h74z" />
    <glyph glyph-name="wdieresis" unicode="&#x1e85;" horiz-adv-x="779" 
d="M297 574q-21 0 -35 14t-14 34t14 34t35 14q20 0 34.5 -14t14.5 -34t-14.5 -34t-34.5 -14zM484 574q-21 0 -35 14t-14 34t14 34t35 14q20 0 34.5 -14t14.5 -34t-14.5 -34t-34.5 -14zM745 462l-174 -462h-62l-119 352l-119 -352h-62l-174 462h74l130 -355l120 355h61
l120 -354l131 354h74z" />
    <glyph glyph-name="Ygrave" unicode="&#x1ef2;" horiz-adv-x="664" 
d="M310 758l-93 142h76l81 -142h-64zM650 680l-281 -437v-243h-72v243h-1l-281 437h79l238 -371l239 371h79z" />
    <glyph glyph-name="ygrave" unicode="&#x1ef3;" horiz-adv-x="592" 
d="M271 553l-93 142h76l81 -142h-64zM552 462l-323 -710h-73l102 224l-236 486h74l198 -407l185 407h73z" />
    <glyph glyph-name="endash" unicode="&#x2013;" horiz-adv-x="731" 
d="M614 306v-68h-497v68h497z" />
    <glyph glyph-name="emdash" unicode="&#x2014;" horiz-adv-x="948" 
d="M859 306v-68h-770v68h770z" />
    <glyph glyph-name="quoteleft" unicode="&#x2018;" horiz-adv-x="184" 
d="M142 680l-49 -133q31 -9 31 -39q0 -19 -13.5 -32t-33.5 -13t-33.5 13t-13.5 32q0 17 15 46l54 126h43z" />
    <glyph glyph-name="quoteright" unicode="&#x2019;" horiz-adv-x="195" 
d="M41 469l50 132q-31 11 -31 39q0 19 13.5 32.5t33.5 13.5t33.5 -13.5t13.5 -32.5q0 -14 -15 -46l-54 -125h-44z" />
    <glyph glyph-name="quotesinglbase" unicode="&#x201a;" horiz-adv-x="195" 
d="M41 -138l49 133q-30 9 -30 38q0 19 13 32.5t33 13.5t33.5 -13t13.5 -33q0 -16 -14 -45l-54 -126h-44z" />
    <glyph glyph-name="quotedblleft" unicode="&#x201c;" horiz-adv-x="357" 
d="M154 680l-49 -133q30 -9 30 -39q0 -19 -13.5 -32t-33.5 -13t-33.5 13t-13.5 32q0 15 15 46l54 126h44zM315 680l-49 -133q30 -9 30 -39q0 -19 -13.5 -32t-32.5 -13q-20 0 -33.5 13t-13.5 32q0 17 14 46l54 126h44z" />
    <glyph glyph-name="quotedblright" unicode="&#x201d;" horiz-adv-x="357" 
d="M41 469l50 132q-31 11 -31 39q0 19 13.5 32.5t33.5 13.5t33.5 -13.5t13.5 -32.5q0 -14 -15 -46l-54 -125h-44zM203 469l50 132q-31 11 -31 39q0 19 13.5 32.5t33.5 13.5t33.5 -13.5t13.5 -32.5q0 -14 -15 -46l-54 -125h-44z" />
    <glyph glyph-name="quotedblbase" unicode="&#x201e;" horiz-adv-x="358" 
d="M41 -138l49 133q-30 9 -30 38q0 19 13 32.5t33 13.5t33.5 -13t13.5 -33q0 -16 -14 -45l-54 -126h-44zM205 -138l49 133q-31 9 -31 38q0 19 13.5 32.5t33.5 13.5t33.5 -13.5t13.5 -32.5q0 -16 -15 -45l-54 -126h-43z" />
    <glyph glyph-name="dagger" unicode="&#x2020;" horiz-adv-x="406" 
d="M227 551v-220h-49v220h-124v49h124v124h49v-124h125v-49h-125z" />
    <glyph glyph-name="daggerdbl" unicode="&#x2021;" horiz-adv-x="406" 
d="M227 492h125v-49h-125v-112h-49v112h-124v49h124v80h-124v48h124v104h49v-104h125v-48h-125v-80z" />
    <glyph glyph-name="bullet" unicode="&#x2022;" horiz-adv-x="318" 
d="M158 183q-46 0 -80 34t-34 80t34 80t80 34q47 0 81.5 -34t34.5 -80t-34.5 -80t-81.5 -34z" />
    <glyph glyph-name="ellipsis" unicode="&#x2026;" horiz-adv-x="573" 
d="M88 -13q-20 0 -33.5 13.5t-13.5 32.5t13.5 32.5t33.5 13.5t33.5 -13.5t13.5 -32.5t-13.5 -32.5t-33.5 -13.5zM284 -13q-20 0 -33.5 13.5t-13.5 32.5t13.5 32.5t33.5 13.5t34 -13.5t14 -32.5t-14 -32.5t-34 -13.5zM485 -13q-20 0 -33.5 13.5t-13.5 32.5t13.5 32.5
t33.5 13.5t33.5 -13.5t13.5 -32.5t-13.5 -32.5t-33.5 -13.5z" />
    <glyph glyph-name="perthousand" unicode="&#x2030;" horiz-adv-x="1533" 
d="M279 695q80 0 134 -53.5t54 -135.5t-54 -135.5t-134 -53.5t-134 53.5t-54 135.5t54 135.5t134 53.5zM338 0h-53l453 680h53zM279 369q56 0 95 39t39 98t-39 98t-95 39t-95 -39t-39 -98t39 -98t95 -39zM806 363q80 0 134 -53t54 -135q0 -83 -54 -136.5t-134 -53.5
t-134 53.5t-54 136.5q0 82 54 135t134 53zM1255 363q80 0 134 -53t54 -135q0 -83 -54 -136.5t-134 -53.5t-134 53.5t-54 136.5q0 82 54 135t134 53zM806 37q56 0 95 39.5t39 98.5t-39 97.5t-95 38.5t-95 -38.5t-39 -97.5t39 -98.5t95 -39.5zM1255 37q56 0 95 39.5t39 98.5
t-39 97.5t-95 38.5t-95 -38.5t-39 -97.5t39 -98.5t95 -39.5z" />
    <glyph glyph-name="guilsinglleft" unicode="&#x2039;" horiz-adv-x="267" 
d="M222 400l-109 -148l109 -148h-68l-109 148l109 148h68z" />
    <glyph glyph-name="guilsinglright" unicode="&#x203a;" horiz-adv-x="267" 
d="M222 252l-109 -148h-68l109 148l-109 148h68z" />
    <glyph glyph-name="fraction" unicode="&#x2044;" horiz-adv-x="446" 
d="M23 0h-53l453 680h53z" />
    <glyph glyph-name="zerosuperior" unicode="&#x2070;" horiz-adv-x="435" 
d="M217 695q82 0 129 -56t47 -143t-47 -142.5t-129 -55.5q-81 0 -128.5 56t-47.5 142q0 87 47.5 143t128.5 56zM217 348q57 0 89 42t32 106q0 65 -32 107.5t-89 42.5q-56 0 -88 -42.5t-32 -107.5q0 -64 31.5 -106t88.5 -42z" />
    <glyph glyph-name="foursuperior" unicode="&#x2074;" horiz-adv-x="401" 
d="M370 388h-60v-80h-53v80h-212v35l119 266h56l-111 -253h148v117h53v-117h60v-48z" />
    <glyph glyph-name="fivesuperior" unicode="&#x2075;" horiz-adv-x="378" 
d="M118 547h71q65 0 101.5 -33t36.5 -87q0 -55 -39.5 -91t-103.5 -36q-62 0 -101 29.5t-48 81.5h54q16 -64 95 -64q41 0 66.5 22.5t25.5 56.5t-23.5 54t-64.5 20l-70 -1h-50v190h240v-49h-190v-93z" />
    <glyph glyph-name="sixsuperior" unicode="&#x2076;" horiz-adv-x="372" 
d="M186 565q65 0 106 -37t41 -94q0 -58 -41.5 -96t-106.5 -38t-107 38t-42 95q0 42 34 91l118 165h64l-88 -125q7 1 22 1zM185 344q41 0 67.5 24.5t26.5 62.5t-26.5 62t-67.5 24q-46 0 -71 -25l-2 -2q-23 -28 -23 -58q0 -38 27 -63t69 -25z" />
    <glyph glyph-name="sevensuperior" unicode="&#x2077;" horiz-adv-x="313" 
d="M296 689v-34l-177 -347h-62l167 329h-204v52h276z" />
    <glyph glyph-name="eightsuperior" unicode="&#x2078;" horiz-adv-x="393" 
d="M277 507q70 -29 70 -95q0 -51 -41 -82.5t-110 -31.5q-68 0 -109 31.5t-41 82.5q0 66 70 95q-54 28 -54 83q0 46 38 75.5t96 29.5q59 0 97 -29.5t38 -75.5q0 -58 -54 -83zM196 652q-34 0 -57 -18.5t-23 -46.5q0 -30 22.5 -47.5t57.5 -17.5q36 0 58.5 17.5t22.5 47.5
q0 28 -23 46.5t-58 18.5zM196 344q41 0 66 19.5t25 51.5q0 31 -25 50t-66 19q-40 0 -65 -19t-25 -50q0 -32 25 -51.5t65 -19.5z" />
    <glyph glyph-name="ninesuperior" unicode="&#x2079;" horiz-adv-x="372" 
d="M187 700q65 0 107 -38t42 -95q0 -42 -34 -91l-118 -165h-64l88 125q-7 -1 -22 -1q-65 0 -106 37t-41 94q0 58 41.5 96t106.5 38zM258 508l2 2q23 28 23 58q0 38 -27 63t-69 25q-41 0 -67.5 -24.5t-26.5 -62.5t26.5 -62t67.5 -24q46 0 71 25z" />
    <glyph glyph-name="zeroinferior" unicode="&#x2080;" horiz-adv-x="435" 
d="M223 209q82 0 129 -56t47 -143t-47 -142.5t-129 -55.5q-81 0 -128.5 56t-47.5 142q0 87 47.5 143t128.5 56zM223 -138q57 0 89 42t32 106q0 65 -32 107.5t-89 42.5q-56 0 -88 -42.5t-32 -107.5q0 -64 31.5 -106t88.5 -42z" />
    <glyph glyph-name="oneinferior" unicode="&#x2081;" horiz-adv-x="310" 
d="M297 -134v-46h-267v46h111v272l-105 -29v47l128 39h29v-329h104z" />
    <glyph glyph-name="twoinferior" unicode="&#x2082;" horiz-adv-x="359" 
d="M318 -134v-46h-269v29l135 135q41 40 57 62t16 47q0 30 -21 49t-56 19q-36 0 -57 -18.5t-23 -50.5h-54q3 54 37.5 85.5t94.5 31.5q62 0 97.5 -32t35.5 -80q0 -33 -18.5 -63.5t-63.5 -74.5l-91 -93h180z" />
    <glyph glyph-name="threeinferior" unicode="&#x2083;" horiz-adv-x="371" 
d="M265 12q60 -25 60 -88q0 -49 -38.5 -80.5t-100.5 -31.5q-60 0 -98 28.5t-45 77.5h54q5 -26 29 -42t61 -16q39 0 62.5 17.5t23.5 46.5q0 30 -23 47t-64 17h-33v44h33q33 0 53.5 18t20.5 46q0 29 -20.5 46.5t-56.5 17.5q-32 0 -52 -15.5t-24 -41.5h-53q5 48 39 76.5
t90 28.5q59 0 94 -31t35 -80q0 -57 -47 -85z" />
    <glyph glyph-name="fourinferior" unicode="&#x2084;" horiz-adv-x="401" 
d="M370 -100h-60v-80h-53v80h-212v35l119 266h56l-111 -253h148v117h53v-117h60v-48z" />
    <glyph glyph-name="fiveinferior" unicode="&#x2085;" horiz-adv-x="378" 
d="M118 59h71q65 0 101.5 -33t36.5 -87q0 -55 -39.5 -91t-103.5 -36q-62 0 -101 29.5t-48 81.5h54q16 -64 95 -64q41 0 66.5 22.5t25.5 56.5t-23.5 54t-64.5 20l-70 -1h-50v190h240v-49h-190v-93z" />
    <glyph glyph-name="sixinferior" unicode="&#x2086;" horiz-adv-x="372" 
d="M186 77q65 0 106 -37t41 -94q0 -58 -41.5 -96t-106.5 -38t-107 38t-42 95q0 42 34 91l118 165h64l-88 -125q7 1 22 1zM185 -144q41 0 67.5 24.5t26.5 62.5t-26.5 62t-67.5 24q-46 0 -71 -25l-2 -2q-23 -28 -23 -58q0 -38 27 -63t69 -25z" />
    <glyph glyph-name="seveninferior" unicode="&#x2087;" horiz-adv-x="313" 
d="M296 201v-34l-177 -347h-62l167 329h-204v52h276z" />
    <glyph glyph-name="eightinferior" unicode="&#x2088;" horiz-adv-x="393" 
d="M277 21q70 -29 70 -95q0 -51 -41 -82.5t-110 -31.5q-68 0 -109 31.5t-41 82.5q0 66 70 95q-54 28 -54 83q0 46 38 75.5t96 29.5q59 0 97 -29.5t38 -75.5q0 -58 -54 -83zM196 166q-34 0 -57 -18.5t-23 -46.5q0 -30 22.5 -47.5t57.5 -17.5q36 0 58.5 17.5t22.5 47.5
q0 28 -23 46.5t-58 18.5zM196 -142q41 0 66 19.5t25 51.5q0 31 -25 50t-66 19q-40 0 -65 -19t-25 -50q0 -32 25 -51.5t65 -19.5z" />
    <glyph glyph-name="nineinferior" unicode="&#x2089;" horiz-adv-x="372" 
d="M187 210q65 0 107 -38t42 -95q0 -42 -34 -91l-118 -165h-64l88 125q-7 -1 -22 -1q-65 0 -106 37t-41 94q0 58 41.5 96t106.5 38zM258 18l2 2q23 28 23 58q0 38 -27 63t-69 25q-41 0 -67.5 -24.5t-26.5 -62.5t26.5 -62t67.5 -24q46 0 71 25z" />
    <glyph glyph-name="Euro" unicode="&#x20ac;" horiz-adv-x="884" 
d="M495 54q95 0 161.5 50t88.5 135h74q-25 -114 -112.5 -183.5t-211.5 -69.5q-118 0 -210 67.5t-126 176.5h-116v51h104q-5 32 -5 59q0 14 2 40h-101v51h110q30 116 124.5 189.5t217.5 73.5q124 0 211.5 -69.5t112.5 -183.5h-74q-22 85 -88.5 135t-161.5 50t-167.5 -53.5
t-99.5 -141.5h331l-13 -51h-329q-3 -20 -3 -40q0 -30 6 -59h302l-13 -51h-275q31 -80 101.5 -128t159.5 -48z" />
    <glyph glyph-name="uni2116" unicode="&#x2116;" horiz-adv-x="1396" 
d="M601 680h71v-680h-61l-444 552v-552h-71v680h59l446 -558v558zM1056 149q-104 0 -175 71t-71 175q0 103 71 173t175 70q103 0 174 -70t71 -173q0 -104 -71 -175t-174 -71zM1056 576q-76 0 -127 -52.5t-51 -128.5t51 -129.5t127 -53.5q75 0 125.5 53.5t50.5 129.5
q0 75 -50.5 128t-125.5 53zM822 61h466v-61h-466v61z" />
    <glyph glyph-name="uni2117" unicode="&#x2117;" horiz-adv-x="859" 
d="M430 695q150 0 257 -102t107 -253t-107 -253t-257 -102t-257 102t-107 253t107 253t257 102zM429 647q-128 0 -220.5 -89t-92.5 -218t92.5 -218t220.5 -89t221 89t93 218t-93 218t-221 89zM317 525h133q64 0 103 -33t39 -86t-39 -84.5t-104 -31.5h-88v-125h-44v360z
M361 483v-153h89q44 0 70 21t26 55q0 35 -26.5 56t-69.5 21h-89z" />
    <glyph glyph-name="trademark" unicode="&#x2122;" horiz-adv-x="683" 
d="M281 679v-40h-108v-252h-41v252h-108v40h257zM632 679v-292h-42v205l-101 -166h-23l-102 167l1 -206h-42v292h34l121 -194l120 194h34z" />
    <glyph glyph-name="oneeighth" unicode="&#x215b;" horiz-adv-x="898" 
d="M691 680l-453 -680h-53l453 680h53zM30 301v46h111v272l-105 -29v47l128 39h29v-329h104v-46h-267zM782 201q70 -29 70 -95q0 -51 -41 -82.5t-110 -31.5q-68 0 -109 31.5t-41 82.5q0 67 71 95q-54 27 -54 83q0 46 37.5 75.5t95.5 29.5q59 0 97 -29.5t38 -75.5
q0 -58 -54 -83zM701 346q-34 0 -57 -18.5t-23 -46.5q0 -30 22.5 -47.5t57.5 -17.5q36 0 58.5 17.5t22.5 47.5q0 28 -23 46.5t-58 18.5zM701 38q41 0 66.5 19.5t25.5 51.5q0 31 -25.5 50t-66.5 19q-40 0 -65 -19t-25 -50q0 -32 25 -51.5t65 -19.5z" />
    <glyph glyph-name="threeeighths" unicode="&#x215c;" horiz-adv-x="888" 
d="M326 409q0 -49 -38.5 -80.5t-100.5 -31.5q-60 0 -98 28.5t-45 77.5h54q5 -26 29 -42t61 -16q39 0 62.5 17.5t23.5 46.5q0 30 -23 47t-64 17h-33v44h33q33 0 53.5 18t20.5 46q0 29 -20.5 46.5t-56.5 17.5q-32 0 -52 -15.5t-24 -41.5h-53q5 48 39 76.5t90 28.5q59 0 94 -31
t35 -80q0 -57 -47 -85q60 -25 60 -88zM681 680l-453 -680h-53l453 680h53zM772 201q70 -29 70 -95q0 -51 -41 -82.5t-110 -31.5q-68 0 -109 31.5t-41 82.5q0 67 71 95q-54 27 -54 83q0 46 37.5 75.5t95.5 29.5q59 0 97 -29.5t38 -75.5q0 -58 -54 -83zM691 346
q-34 0 -57 -18.5t-23 -46.5q0 -30 22.5 -47.5t57.5 -17.5q36 0 58.5 17.5t22.5 47.5q0 28 -23 46.5t-58 18.5zM691 38q41 0 66.5 19.5t25.5 51.5q0 31 -25.5 50t-66.5 19q-40 0 -65 -19t-25 -50q0 -32 25 -51.5t65 -19.5z" />
    <glyph glyph-name="fiveeighths" unicode="&#x215d;" horiz-adv-x="890" 
d="M327 420q0 -55 -39.5 -91t-103.5 -36q-62 0 -101 29.5t-48 81.5h54q16 -64 95 -64q41 0 66.5 22.5t25.5 56.5t-23.5 54t-64.5 20l-70 -1h-50v190h240v-49h-190v-93h71q65 0 101.5 -33t36.5 -87zM683 680l-453 -680h-53l453 680h53zM775 201q70 -29 70 -95
q0 -51 -41 -82.5t-110 -31.5q-68 0 -109.5 31.5t-41.5 82.5q0 67 71 95q-54 27 -54 83q0 46 37.5 75.5t96.5 29.5t97 -29.5t38 -75.5q0 -58 -54 -83zM694 346q-35 0 -58 -18.5t-23 -46.5q0 -30 23 -47.5t58 -17.5t57.5 17.5t22.5 47.5q0 28 -23 46.5t-57 18.5zM694 38
q41 0 66 19.5t25 51.5q0 31 -25 50t-66 19t-66 -19t-25 -50q0 -32 25 -51.5t66 -19.5z" />
    <glyph glyph-name="seveneighths" unicode="&#x215e;" horiz-adv-x="802" 
d="M66 301l167 329h-204v52h276v-34l-177 -347h-62zM595 680l-453 -680h-53l453 680h53zM687 201q70 -29 70 -95q0 -51 -41 -82.5t-110 -31.5q-68 0 -109.5 31.5t-41.5 82.5q0 67 71 95q-54 27 -54 83q0 46 38 75.5t96 29.5q59 0 97 -29.5t38 -75.5q0 -58 -54 -83zM606 346
q-35 0 -58 -18.5t-23 -46.5q0 -30 23 -47.5t58 -17.5t58 17.5t23 47.5q0 28 -23 46.5t-58 18.5zM606 38q41 0 66 19.5t25 51.5q0 31 -25 50t-66 19t-66 -19t-25 -50q0 -32 25 -51.5t66 -19.5z" />
    <glyph glyph-name="arrowleft" unicode="&#x2190;" horiz-adv-x="766" 
d="M155 309l271 -268l-46 -46l-346 347l346 346l46 -45l-271 -269h571v-65h-571z" />
    <glyph glyph-name="arrowup" unicode="&#x2191;" horiz-adv-x="783" 
d="M359 571l-269 -271l-45 46l346 346l347 -346l-46 -46l-268 271v-571h-65v571z" />
    <glyph glyph-name="arrowright" unicode="&#x2192;" horiz-adv-x="766" 
d="M40 374h571l-271 269l46 45l346 -346l-346 -347l-46 46l271 268h-571v65z" />
    <glyph glyph-name="arrowdown" unicode="&#x2193;" horiz-adv-x="783" 
d="M424 680v-571l268 271l46 -46l-347 -346l-346 346l45 46l269 -271v571h65z" />
    <glyph glyph-name="arrowupleft" unicode="&#x2196;" horiz-adv-x="811" 
d="M726 -2l-572 571l1 -379h-65v490h490v-65l-380 1l571 -572z" />
    <glyph glyph-name="arrowupright" unicode="&#x2197;" horiz-adv-x="833" 
d="M633 616l-380 -1l1 65h489v-490h-64v379l-571 -571l-46 46z" />
    <glyph glyph-name="arrowdownright" unicode="&#x2198;" horiz-adv-x="811" 
d="M85 682l571 -571v379h65v-490h-490l-1 65l380 -1l-571 572z" />
    <glyph glyph-name="arrowdownleft" unicode="&#x2199;" horiz-adv-x="796" 
d="M200 64l380 1v-65h-490v490h65l-1 -379l572 571l45 -46z" />
    <glyph glyph-name="minus" unicode="&#x2212;" horiz-adv-x="693" 
d="M117 355h459v-64h-459v64z" />
    <glyph glyph-name="R.ss02" horiz-adv-x="678" 
d="M207 247h-40v-247h-71v680h251q119 0 190 -58.5t71 -158.5q0 -99 -71.5 -157.5t-189.5 -58.5h-34l328 -247h-103zM167 312h178q87 0 139.5 40.5t52.5 110.5q0 71 -52.5 111.5t-139.5 40.5h-178v-303z" />
    <glyph glyph-name="Racute.ss02" horiz-adv-x="678" 
d="M352 758h-64l81 142h76zM207 247h-40v-247h-71v680h251q119 0 190 -58.5t71 -158.5q0 -99 -71.5 -157.5t-189.5 -58.5h-35l328 -247h-103zM167 312h178q87 0 139.5 40.5t52.5 110.5q0 71 -52.5 111.5t-139.5 40.5h-178v-303z" />
    <glyph glyph-name="Rcaron.ss02" horiz-adv-x="678" 
d="M290 756l-123 144h67l91 -101l91 101h67l-123 -144h-70zM207 247h-40v-247h-71v680h251q119 0 190 -58.5t71 -158.5q0 -99 -71.5 -157.5t-189.5 -58.5h-35l328 -247h-103zM167 312h178q87 0 139.5 40.5t52.5 110.5q0 71 -52.5 111.5t-139.5 40.5h-178v-303z" />
    <glyph glyph-name="Rcommaaccent.ss02" horiz-adv-x="678" 
d="M640 0h-103l-330 247h-40v-247h-71v680h251q119 0 190 -58.5t71 -158.5q0 -99 -71.5 -157.5t-189.5 -58.5h-35zM167 312h178q87 0 139.5 40.5t52.5 110.5q0 71 -52.5 111.5t-139.5 40.5h-178v-303zM328 -66q19 0 32.5 -12.5t13.5 -32.5q0 -14 -7.5 -30.5t-46.5 -95.5h-41
l37 88q-34 7 -34 40q0 18 13.5 30.5t32.5 12.5z" />
    <glyph glyph-name="Q.ss03" horiz-adv-x="839" 
d="M420 694q147 0 250.5 -103.5t103.5 -250.5t-103.5 -250.5t-250.5 -103.5t-250.5 103.5t-103.5 250.5t103.5 250.5t250.5 103.5zM419 52q119 0 201 84.5t82 203.5t-82 203.5t-201 84.5q-118 0 -200 -84.5t-82 -203.5t82 -203.5t200 -84.5zM713 -147l-9 -68
q-157 31 -326 83l7 52z" />
    <glyph glyph-name="i.loclTRK" horiz-adv-x="266" 
d="M133 591q-20 0 -33.5 13t-13.5 33q0 19 13.5 32.5t33.5 13.5t34 -13.5t14 -32.5q0 -20 -14 -33t-34 -13zM167 462v-462h-68v462h68z" />
    <glyph glyph-name="germandbls.case" horiz-adv-x="1308" 
d="M330 695q108 0 180.5 -51t84.5 -148h-70q-12 65 -59.5 101t-130.5 36q-78 0 -124.5 -35t-46.5 -94q0 -91 139 -116l103 -20q189 -36 189 -177q0 -93 -69.5 -149.5t-183.5 -56.5q-122 0 -196.5 61t-86.5 171h70q13 -80 68 -124t148 -44q81 0 129.5 36.5t48.5 97.5
q0 93 -128 116l-118 23q-93 17 -140.5 62.5t-47.5 115.5q0 88 66.5 141.5t174.5 53.5zM977 695q107 0 180 -51t85 -148h-70q-12 65 -59.5 101t-131.5 36q-78 0 -124.5 -35t-46.5 -94q0 -91 140 -116l103 -20q189 -36 189 -177q0 -93 -69.5 -149.5t-183.5 -56.5
q-122 0 -196.5 61t-86.5 171h70q13 -80 68 -124t148 -44q81 0 129 36.5t48 97.5q0 93 -128 116l-118 23q-93 17 -140.5 62.5t-47.5 115.5q0 88 66.5 141.5t175.5 53.5z" />
    <glyph glyph-name="l.ss01" horiz-adv-x="361" 
d="M158 710v-575q0 -87 75 -87q26 0 76 12l10 -59q-54 -16 -95 -16q-65 0 -99.5 37t-34.5 109v579h68z" />
    <glyph glyph-name="lacute.ss01" horiz-adv-x="361" 
d="M249 942l-93 -142h-64l81 142h76zM158 710v-575q0 -87 75 -87q25 0 77 12l10 -59q-55 -16 -96 -16q-65 0 -99.5 37t-34.5 109v579h68z" />
    <glyph glyph-name="lcaron.ss01" horiz-adv-x="361" 
d="M158 710v-575q0 -87 75 -87q25 0 77 12l10 -59q-55 -16 -96 -16q-65 0 -99.5 37t-34.5 109v579h68zM314 710l-26 -185h-53l10 185h69z" />
    <glyph glyph-name="lcommaaccent.ss01" horiz-adv-x="361" 
d="M158 710v-575q0 -87 75 -87q25 0 77 12l10 -59q-55 -16 -96 -16q-65 0 -99.5 37t-34.5 109v579h68zM148 -237l37 88q-34 7 -34 40q0 18 13.5 30.5t32.5 12.5t32.5 -12.5t13.5 -32.5q0 -14 -7.5 -30.5t-46.5 -95.5h-41z" />
    <glyph glyph-name="ldot.ss01" horiz-adv-x="378" 
d="M158 710v-575q0 -87 75 -87q25 0 77 12l10 -59q-55 -16 -96 -16q-65 0 -99.5 37t-34.5 109v579h68zM291 269q-20 0 -34.5 14t-14.5 34t14.5 34t34.5 14t34.5 -14t14.5 -34t-14.5 -34t-34.5 -14z" />
    <glyph glyph-name="lslash.ss01" horiz-adv-x="361" 
d="M310 60l10 -59q-55 -16 -96 -16q-65 0 -99.5 37t-34.5 109v176l-70 -35v71l70 35v332h68v-298l75 38v-71l-75 -38v-206q0 -87 75 -87q25 0 77 12z" />
    <glyph glyph-name="y.ss04" horiz-adv-x="595" 
d="M510 462v-488q0 -100 -60 -158.5t-160 -58.5q-90 0 -151.5 48t-74.5 124h70q11 -49 52.5 -79t103.5 -30q69 0 110.5 41t41.5 113v92q-68 -68 -166 -68q-92 0 -146.5 56.5t-54.5 153.5v254h68v-251q0 -72 38.5 -111.5t106.5 -39.5q43 0 84 22.5t70 62.5v317h68z" />
    <glyph glyph-name="yacute.ss04" horiz-adv-x="595" 
d="M322 552h-64l81 142h76zM510 462v-488q0 -100 -60.5 -158.5t-159.5 -58.5q-90 0 -152 48t-74 124h70q11 -49 52 -79t104 -30q69 0 110.5 41t41.5 113v92q-68 -68 -166 -68q-92 0 -146.5 56.5t-54.5 153.5v254h68v-251q0 -72 38.5 -111.5t106.5 -39.5q43 0 84 22.5
t70 62.5v317h68z" />
    <glyph glyph-name="ycircumflex.ss04" horiz-adv-x="595" 
d="M203 545h-67l123 144h70l123 -144h-67l-91 100zM510 462v-488q0 -100 -60.5 -158.5t-159.5 -58.5q-90 0 -152 48t-74 124h70q11 -49 52 -79t104 -30q69 0 110.5 41t41.5 113v92q-68 -68 -166 -68q-92 0 -146.5 56.5t-54.5 153.5v254h68v-251q0 -72 38.5 -111.5
t106.5 -39.5q43 0 84 22.5t70 62.5v317h68z" />
    <glyph glyph-name="ydieresis.ss04" horiz-adv-x="595" 
d="M201 574q-21 0 -35 14t-14 34t14 34t35 14q20 0 34.5 -14t14.5 -34t-14.5 -34t-34.5 -14zM388 574q-21 0 -35 14t-14 34t14 34t35 14q20 0 34.5 -14t14.5 -34t-14.5 -34t-34.5 -14zM510 462v-488q0 -100 -60.5 -158.5t-159.5 -58.5q-90 0 -152 48t-74 124h70
q11 -49 52 -79t104 -30q69 0 110.5 41t41.5 113v92q-68 -68 -166 -68q-92 0 -146.5 56.5t-54.5 153.5v254h68v-251q0 -72 38.5 -111.5t106.5 -39.5q43 0 84 22.5t70 62.5v317h68z" />
    <glyph glyph-name="ygrave.ss04" horiz-adv-x="595" 
d="M272 553l-93 142h76l81 -142h-64zM510 462v-488q0 -100 -60.5 -158.5t-159.5 -58.5q-90 0 -152 48t-74 124h70q11 -49 52 -79t104 -30q69 0 110.5 41t41.5 113v92q-68 -68 -166 -68q-92 0 -146.5 56.5t-54.5 153.5v254h68v-251q0 -72 38.5 -111.5t106.5 -39.5
q43 0 84 22.5t70 62.5v317h68z" />
    <glyph glyph-name="a.ss06" horiz-adv-x="543" 
d="M278 471q97 0 149 -54.5t52 -153.5v-263h-68v42q-80 -54 -172 -54q-86 0 -136 39t-50 106q0 60 45 95.5t125 34.5h188q0 149 -133 149q-51 0 -87 -22t-43 -60h-70q9 67 65.5 104t134.5 37zM247 46q91 0 164 60v104h-190q-51 0 -76.5 -21.5t-25.5 -54.5q0 -39 34 -63.5
t94 -24.5z" />
    <glyph glyph-name="aacute.ss06" horiz-adv-x="543" 
d="M310 552h-64l81 142h76zM278 471q97 0 149 -54.5t52 -153.5v-263h-68v42q-80 -54 -172 -54q-86 0 -136 39t-50 106q0 60 45 95.5t125 34.5h188q0 149 -133 149q-51 0 -87 -22t-43 -60h-70q9 67 65.5 104t134.5 37zM247 46q91 0 164 60v104h-190q-50 0 -76 -21.5
t-26 -54.5q0 -39 34 -63.5t94 -24.5z" />
    <glyph glyph-name="abreve.ss06" horiz-adv-x="543" 
d="M282 540q-61 0 -101.5 36t-40.5 103h52q0 -45 26.5 -68t63.5 -23t63.5 23t26.5 68h52q0 -67 -40.5 -103t-101.5 -36zM278 471q97 0 149 -54.5t52 -153.5v-263h-68v42q-80 -54 -172 -54q-86 0 -136 39t-50 106q0 60 45 95.5t125 34.5h188q0 149 -133 149q-51 0 -87 -22
t-43 -60h-70q9 67 65.5 104t134.5 37zM247 46q91 0 164 60v104h-190q-50 0 -76 -21.5t-26 -54.5q0 -39 34 -63.5t94 -24.5z" />
    <glyph glyph-name="acaron.ss06" horiz-adv-x="543" 
d="M247 545l-123 144h67l91 -101l91 101h67l-123 -144h-70zM278 471q97 0 149 -54.5t52 -153.5v-263h-68v42q-80 -54 -172 -54q-86 0 -136 39t-50 106q0 60 45 95.5t125 34.5h188q0 149 -133 149q-51 0 -87 -22t-43 -60h-70q9 67 65.5 104t134.5 37zM247 46q91 0 164 60v104
h-190q-50 0 -76 -21.5t-26 -54.5q0 -39 34 -63.5t94 -24.5z" />
    <glyph glyph-name="acircumflex.ss06" horiz-adv-x="543" 
d="M191 545h-67l123 144h70l123 -144h-67l-91 100zM278 471q97 0 149 -54.5t52 -153.5v-263h-68v42q-80 -54 -172 -54q-86 0 -136 39t-50 106q0 60 45 95.5t125 34.5h188q0 149 -133 149q-51 0 -87 -22t-43 -60h-70q9 67 65.5 104t134.5 37zM247 46q91 0 164 60v104h-190
q-50 0 -76 -21.5t-26 -54.5q0 -39 34 -63.5t94 -24.5z" />
    <glyph glyph-name="adieresis.ss06" horiz-adv-x="543" 
d="M189 574q-21 0 -35 14t-14 34t14 34t35 14q20 0 34.5 -14t14.5 -34t-14.5 -34t-34.5 -14zM376 574q-21 0 -35 14t-14 34t14 34t35 14q20 0 34.5 -14t14.5 -34t-14.5 -34t-34.5 -14zM278 471q97 0 149 -54.5t52 -153.5v-263h-68v42q-80 -54 -172 -54q-86 0 -136 39
t-50 106q0 60 45 95.5t125 34.5h188q0 149 -133 149q-51 0 -87 -22t-43 -60h-70q9 67 65.5 104t134.5 37zM247 46q91 0 164 60v104h-190q-50 0 -76 -21.5t-26 -54.5q0 -39 34 -63.5t94 -24.5z" />
    <glyph glyph-name="agrave.ss06" horiz-adv-x="543" 
d="M260 553l-93 142h76l81 -142h-64zM278 471q97 0 149 -54.5t52 -153.5v-263h-68v42q-80 -54 -172 -54q-86 0 -136 39t-50 106q0 60 45 95.5t125 34.5h188q0 149 -133 149q-51 0 -87 -22t-43 -60h-70q9 67 65.5 104t134.5 37zM247 46q91 0 164 60v104h-190q-50 0 -76 -21.5
t-26 -54.5q0 -39 34 -63.5t94 -24.5z" />
    <glyph glyph-name="amacron.ss06" horiz-adv-x="543" 
d="M420 572h-277v56h277v-56zM278 471q97 0 149 -54.5t52 -153.5v-263h-68v42q-80 -54 -172 -54q-86 0 -136 39t-50 106q0 60 45 95.5t125 34.5h188q0 149 -133 149q-51 0 -87 -22t-43 -60h-70q9 67 65.5 104t134.5 37zM247 46q91 0 164 60v104h-190q-50 0 -76 -21.5
t-26 -54.5q0 -39 34 -63.5t94 -24.5z" />
    <glyph glyph-name="aogonek.ss06" horiz-adv-x="543" 
d="M507 -130l7 -53q-19 -7 -50 -7q-58 0 -93 29t-35 76q0 63 75 101v26q-80 -54 -172 -54q-86 0 -136 39t-50 106q0 60 45 95.5t125 34.5h188q0 149 -133 149q-51 0 -87 -22t-43 -60h-70q9 67 65.5 104t134.5 37q97 0 149 -54.5t52 -153.5v-260l1 -3q-85 -27 -85 -78
q0 -26 20.5 -41t57.5 -15q12 0 34 4zM247 46q91 0 164 60v104h-190q-50 0 -76 -21.5t-26 -54.5q0 -39 34 -63.5t94 -24.5z" />
    <glyph glyph-name="aring.ss06" horiz-adv-x="543" 
d="M283 545q-44 0 -72 27t-28 69t28 68.5t72 26.5t71.5 -26.5t27.5 -68.5t-28 -69t-71 -27zM283 698q-25 0 -41.5 -16.5t-16.5 -40.5q0 -25 16.5 -41.5t41.5 -16.5t41 16.5t16 41.5q0 24 -16 40.5t-41 16.5zM278 471q97 0 149 -54.5t52 -153.5v-263h-68v42q-80 -54 -172 -54
q-86 0 -136 39t-50 106q0 60 45 95.5t125 34.5h188q0 149 -133 149q-51 0 -87 -22t-43 -60h-70q9 67 65.5 104t134.5 37zM247 46q91 0 164 60v104h-190q-50 0 -76 -21.5t-26 -54.5q0 -39 34 -63.5t94 -24.5z" />
    <glyph glyph-name="atilde.ss06" horiz-adv-x="543" 
d="M304 590l-42 28q-28 19 -50 9t-22 -39h-56q0 46 25.5 72.5t57.5 25t61 -16.5l42 -27q31 -20 51.5 -10t20.5 40h56q0 -46 -24.5 -73t-56.5 -26.5t-63 17.5zM278 471q97 0 149 -54.5t52 -153.5v-263h-68v42q-80 -54 -172 -54q-86 0 -136 39t-50 106q0 60 45 95.5t125 34.5
h188q0 149 -133 149q-51 0 -87 -22t-43 -60h-70q9 67 65.5 104t134.5 37zM247 46q91 0 164 60v104h-190q-50 0 -76 -21.5t-26 -54.5q0 -39 34 -63.5t94 -24.5z" />
    <glyph glyph-name="zero.osf" horiz-adv-x="669" 
d="M335 550q121 0 197.5 -77t76.5 -204q0 -126 -77 -203.5t-197 -77.5q-121 0 -198 77.5t-77 203.5q0 127 77 204t198 77zM335 51q89 0 147 60t58 158t-58 158t-147 60q-90 0 -148 -60t-58 -158t58 -158t148 -60z" />
    <glyph glyph-name="one.osf" horiz-adv-x="506" 
d="M492 59v-59h-443v59h194v412l-182 -63v62l213 80h39v-491h179z" />
    <glyph glyph-name="two.osf" horiz-adv-x="553" 
d="M503 59v-59h-441v37l156 112q8 6 24 17q46 33 69 50.5t53 44.5t42.5 51.5t12.5 50.5q0 59 -38 93.5t-106 34.5t-110.5 -37t-49.5 -100h-68q5 90 65 144.5t159 54.5q101 0 160 -53t59 -139q0 -36 -14.5 -67.5t-50.5 -64.5t-64.5 -54t-89.5 -62l-80 -54h312z" />
    <glyph glyph-name="three.osf" horiz-adv-x="563" 
d="M403 205q114 -46 114 -164q0 -85 -64 -139.5t-167 -54.5q-104 0 -167.5 48.5t-72.5 130.5h69q9 -55 53.5 -86.5t117.5 -31.5t118.5 37t45.5 96q0 60 -44 96t-117 36h-56v58h56q63 0 101.5 35.5t38.5 93.5q0 60 -40.5 96t-107.5 36q-61 0 -101 -31.5t-47 -84.5h-69
q7 80 65.5 128.5t149.5 48.5q99 0 158 -53t59 -140q0 -109 -93 -155z" />
    <glyph glyph-name="four.osf" horiz-adv-x="643" 
d="M597 1h-110v-150h-68v150h-366v43l207 487h73l-197 -469h283v221h68v-221h110v-61z" />
    <glyph glyph-name="five.osf" horiz-adv-x="585" 
d="M161 281h138q105 0 168.5 -57.5t63.5 -150.5q0 -96 -67.5 -160.5t-173.5 -64.5q-105 0 -171 52.5t-82 143.5h70q15 -64 61 -99.5t122 -35.5t125 47t49 116q0 66 -47 107t-126 41l-196 -1l1 324h400v-63h-335v-199z" />
    <glyph glyph-name="six.osf" horiz-adv-x="615" 
d="M307 454q110 0 180.5 -65t70.5 -167q0 -103 -70.5 -170t-180.5 -67q-109 0 -180 66.5t-71 168.5q0 74 54 157l59 -40q-44 -56 -44 -119q0 -76 51.5 -125.5t130.5 -49.5t130 49.5t51 126.5q0 75 -51 124t-130 49q-82 0 -133 -48l-5 -7l-58 40l215 303h84l-164 -233
q27 7 61 7z" />
    <glyph glyph-name="seven.osf" horiz-adv-x="502" 
d="M480 540v-43l-315 -637h-80l305 614h-374v66h464z" />
    <glyph glyph-name="eight.osf" horiz-adv-x="622" 
d="M431 359q63 -22 98.5 -67t35.5 -105q0 -90 -70 -146t-185 -56t-184.5 56t-69.5 146q0 61 35.5 106t99.5 67q-105 44 -105 150q0 80 63.5 132.5t161.5 52.5t162 -52.5t64 -132.5q0 -107 -106 -151zM155 507q0 -58 43.5 -93t112.5 -35t112.5 35t43.5 93q0 55 -44.5 93.5
t-111.5 38.5q-68 0 -112 -38t-44 -94zM311 44q79 0 128.5 41.5t49.5 105.5q0 61 -49.5 100t-128.5 39t-128.5 -38.5t-49.5 -100.5q0 -64 49.5 -105.5t128.5 -41.5z" />
    <glyph glyph-name="nine.osf" horiz-adv-x="615" 
d="M308 548q109 0 180 -66.5t71 -168.5q0 -75 -55 -157l-215 -303h-84l164 233q-33 -7 -62 -7q-109 0 -179.5 65t-70.5 167q0 103 70.5 170t180.5 67zM441 189l5 7q43 54 43 119q0 76 -51 125.5t-130 49.5t-130 -49.5t-51 -126.5q0 -75 51 -124t130 -49q82 0 133 48z" />
    <glyph glyph-name="zero.tf" horiz-adv-x="606" 
d="M302 695q128 0 202.5 -98t74.5 -257t-74.5 -257t-202.5 -98q-129 0 -203.5 98t-74.5 257t74.5 257t203.5 98zM302 49q96 0 150.5 80.5t54.5 210.5t-54.5 210.5t-150.5 80.5q-97 0 -151.5 -80t-54.5 -211t54.5 -211t151.5 -80z" />
    <glyph glyph-name="one.tf" horiz-adv-x="606" 
d="M557 59v-59h-484v59h217v542l-182 -63v62l214 80h39v-621h196z" />
    <glyph glyph-name="two.tf" horiz-adv-x="606" 
d="M539 59v-59h-447v37l219 233q55 56 79.5 84t44.5 65.5t20 72.5q0 61 -41 101t-112 40q-66 0 -109.5 -37t-51.5 -100h-70q5 90 66.5 144.5t161.5 54.5q103 0 165 -58t62 -145q0 -59 -35 -111.5t-121 -141.5l-172 -180h341z" />
    <glyph glyph-name="three.tf" horiz-adv-x="606" 
d="M435 345q114 -46 114 -164q0 -85 -64 -139.5t-167 -54.5q-104 0 -167.5 48.5t-72.5 130.5h69q9 -55 53.5 -86.5t117.5 -31.5t118.5 37t45.5 96q0 60 -44 96t-117 36h-56v58h56q63 0 101.5 35.5t38.5 93.5q0 60 -40.5 96t-107.5 36q-61 0 -101 -31.5t-47 -84.5h-69
q7 80 65.5 128.5t149.5 48.5q99 0 158 -53t59 -140q0 -109 -93 -155z" />
    <glyph glyph-name="four.tf" horiz-adv-x="606" 
d="M579 150h-110v-150h-68v150h-366v43l207 487h73l-197 -469h283v221h68v-221h110v-61z" />
    <glyph glyph-name="five.tf" horiz-adv-x="606" 
d="M163 418h138q105 0 168.5 -57.5t63.5 -150.5q0 -96 -67.5 -160.5t-173.5 -64.5q-105 0 -171 52.5t-82 143.5h70q15 -64 61 -99.5t122 -35.5t125 47t49 116q0 66 -47 107t-126 41l-196 -1l1 324h400v-63h-335v-199z" />
    <glyph glyph-name="six.tf" horiz-adv-x="606" 
d="M316 454q109 0 179.5 -65t70.5 -167q0 -103 -70.5 -170t-180.5 -67q-109 0 -180 66.5t-71 168.5q0 74 55 157l215 303h84l-164 -233q33 7 62 7zM315 43q79 0 130 49.5t51 126.5q0 75 -51 124t-130 49q-82 0 -133 -48l-5 -7q-43 -54 -43 -119q0 -76 51 -125.5t130 -49.5z
" />
    <glyph glyph-name="seven.tf" horiz-adv-x="606" 
d="M545 680v-43l-315 -637h-80l306 614h-375v66h464z" />
    <glyph glyph-name="eight.tf" horiz-adv-x="606" 
d="M427 359q63 -22 98.5 -67t35.5 -105q0 -90 -70 -146t-185 -56t-184.5 56t-69.5 146q0 60 35 105t99 68q-105 42 -105 150q0 80 63.5 132.5t161.5 52.5t162 -52.5t64 -132.5q0 -106 -105 -151zM150 507q0 -58 44 -93t112 -35q69 0 113 35t44 93q0 55 -44.5 93.5
t-112.5 38.5q-67 0 -111.5 -38t-44.5 -94zM306 44q79 0 129 41.5t50 105.5q0 61 -50 100t-129 39t-128.5 -38.5t-49.5 -100.5q0 -64 49.5 -105.5t128.5 -41.5z" />
    <glyph glyph-name="nine.tf" horiz-adv-x="589" 
d="M294 695q109 0 180 -66.5t71 -168.5q0 -74 -55 -157l-215 -303h-84l164 233q-33 -7 -62 -7q-109 0 -179.5 65t-70.5 167q0 103 70.5 170t180.5 67zM427 336l5 7q43 54 43 119q0 76 -51 125.5t-130 49.5t-130 -49.5t-51 -126.5q0 -75 51 -124t130 -49q82 0 133 48z" />
    <glyph glyph-name="zero.zero" horiz-adv-x="717" 
d="M359 695q137 0 215 -97.5t78 -257.5t-78 -257.5t-215 -97.5t-215 97.5t-78 257.5t78 257.5t215 97.5zM358 631q-105 0 -163 -80t-58 -211q0 -120 48 -196l298 446q-52 41 -125 41zM358 49q105 0 163 80t58 211q0 125 -51 200l-298 -448q54 -43 128 -43z" />
    <glyph glyph-name="zero.osf.zero" horiz-adv-x="669" 
d="M341 550q120 0 197 -77t77 -204q0 -126 -77 -203.5t-197 -77.5q-121 0 -198 77.5t-77 203.5q0 127 77 204t198 77zM135 269q0 -75 36 -130l296 307q-55 41 -126 41q-90 0 -148 -60t-58 -158zM341 51q89 0 147 60t58 158q0 78 -40 136l-297 -309q54 -45 132 -45z" />
    <glyph glyph-name="zero.dnom" horiz-adv-x="435" 
d="M217 389q82 0 129 -56t47 -143t-47 -142.5t-129 -55.5q-81 0 -128.5 56t-47.5 142q0 87 47.5 143t128.5 56zM217 42q57 0 89 42t32 106q0 65 -32 107.5t-89 42.5q-56 0 -88 -42.5t-32 -107.5q0 -64 31.5 -106t88.5 -42z" />
    <glyph glyph-name="one.dnom" horiz-adv-x="310" 
d="M297 46v-46h-267v46h111v272l-105 -29v47l128 39h29v-329h104z" />
    <glyph glyph-name="two.dnom" horiz-adv-x="359" 
d="M318 46v-46h-269v29l135 135q41 40 57 62t16 47q0 30 -21 49t-56 19q-36 0 -57 -18.5t-23 -50.5h-54q3 54 37.5 85.5t94.5 31.5q62 0 97.5 -32t35.5 -80q0 -33 -18.5 -63.5t-63.5 -74.5l-91 -93h180z" />
    <glyph glyph-name="three.dnom" horiz-adv-x="371" 
d="M265 192q60 -25 60 -88q0 -49 -38.5 -80.5t-100.5 -31.5q-60 0 -98 28.5t-45 77.5h54q5 -26 29 -42t61 -16q39 0 62.5 17.5t23.5 46.5q0 30 -23 47t-64 17h-33v44h33q33 0 53.5 18t20.5 46q0 29 -20.5 46.5t-56.5 17.5q-32 0 -52 -15.5t-24 -41.5h-53q5 48 39 76.5
t90 28.5q59 0 94 -31t35 -80q0 -57 -47 -85z" />
    <glyph glyph-name="four.dnom" horiz-adv-x="401" 
d="M359 80h-60v-80h-53v80h-212v35l119 266h56l-111 -253h148v117h53v-117h60v-48z" />
    <glyph glyph-name="five.dnom" horiz-adv-x="378" 
d="M118 239h71q65 0 101.5 -33t36.5 -87q0 -55 -39.5 -91t-103.5 -36q-62 0 -101 29.5t-48 81.5h54q16 -64 95 -64q41 0 66.5 22.5t25.5 56.5t-23.5 54t-64.5 20l-70 -1h-50v190h240v-49h-190v-93z" />
    <glyph glyph-name="six.dnom" horiz-adv-x="372" 
d="M186 257q65 0 106 -37t41 -94q0 -58 -41.5 -96t-106.5 -38t-107 38t-42 95q0 42 34 91l118 165h64l-88 -125q7 1 22 1zM185 36q41 0 67.5 24.5t26.5 62.5t-26.5 62t-67.5 24q-46 0 -71 -25l-2 -2q-23 -28 -23 -58q0 -38 27 -63t69 -25z" />
    <glyph glyph-name="seven.dnom" horiz-adv-x="313" 
d="M296 381v-34l-177 -347h-62l167 329h-204v52h276z" />
    <glyph glyph-name="eight.dnom" horiz-adv-x="393" 
d="M277 201q70 -29 70 -95q0 -51 -41 -82.5t-110 -31.5q-68 0 -109 31.5t-41 82.5q0 66 70 95q-54 28 -54 83q0 46 38 75.5t96 29.5q59 0 97 -29.5t38 -75.5q0 -58 -54 -83zM196 346q-34 0 -57 -18.5t-23 -46.5q0 -30 22.5 -47.5t57.5 -17.5q36 0 58.5 17.5t22.5 47.5
q0 28 -23 46.5t-58 18.5zM196 38q41 0 66 19.5t25 51.5q0 31 -25 50t-66 19q-40 0 -65 -19t-25 -50q0 -32 25 -51.5t65 -19.5z" />
    <glyph glyph-name="nine.dnom" horiz-adv-x="372" 
d="M187 390q65 0 107 -38t42 -95q0 -42 -34 -91l-118 -165h-64l88 125q-7 -1 -22 -1q-65 0 -106 37t-41 94q0 58 41.5 96t106.5 38zM258 198l2 2q23 28 23 58q0 38 -27 63t-69 25q-41 0 -67.5 -24.5t-26.5 -62.5t26.5 -62t67.5 -24q46 0 71 25z" />
    <glyph glyph-name="zero.numr" horiz-adv-x="435" 
d="M217 690q82 0 129 -56t47 -143t-47 -142.5t-129 -55.5q-81 0 -128.5 56t-47.5 142q0 87 47.5 143t128.5 56zM217 343q57 0 89 42t32 106q0 65 -32 107.5t-89 42.5q-56 0 -88 -42.5t-32 -107.5q0 -64 31.5 -106t88.5 -42z" />
    <glyph glyph-name="one.numr" horiz-adv-x="310" 
d="M297 347v-46h-267v46h111v272l-105 -29v47l128 39h29v-329h104z" />
    <glyph glyph-name="two.numr" horiz-adv-x="359" 
d="M318 347v-46h-269v29l135 135q41 40 57 62t16 47q0 30 -21 49t-56 19q-36 0 -57 -18.5t-23 -50.5h-54q3 54 37.5 85.5t94.5 31.5q62 0 97.5 -32t35.5 -80q0 -33 -18.5 -63.5t-63.5 -74.5l-91 -93h180z" />
    <glyph glyph-name="three.numr" horiz-adv-x="371" 
d="M265 497q60 -25 60 -88q0 -49 -38.5 -80.5t-100.5 -31.5q-60 0 -98 28.5t-45 77.5h54q5 -26 29 -42t61 -16q39 0 62.5 17.5t23.5 46.5q0 30 -23 47t-64 17h-33v44h33q33 0 53.5 18t20.5 46q0 29 -20.5 46.5t-56.5 17.5q-32 0 -52 -15.5t-24 -41.5h-53q5 48 39 76.5
t90 28.5q59 0 94 -31t35 -80q0 -57 -47 -85z" />
    <glyph glyph-name="four.numr" horiz-adv-x="401" 
d="M359 381h-60v-80h-53v80h-212v35l119 266h56l-111 -253h148v117h53v-117h60v-48z" />
    <glyph glyph-name="five.numr" horiz-adv-x="378" 
d="M118 540h71q65 0 101.5 -33t36.5 -87q0 -55 -39.5 -91t-103.5 -36q-62 0 -101 29.5t-48 81.5h54q16 -64 95 -64q41 0 66.5 22.5t25.5 56.5t-23.5 54t-64.5 20l-70 -1h-50v190h240v-49h-190v-93z" />
    <glyph glyph-name="six.numr" horiz-adv-x="372" 
d="M186 558q65 0 106 -37t41 -94q0 -58 -41.5 -96t-106.5 -38t-107 38t-42 95q0 42 34 91l118 165h64l-88 -125q7 1 22 1zM185 337q41 0 67.5 24.5t26.5 62.5t-26.5 62t-67.5 24q-46 0 -71 -25l-2 -2q-23 -28 -23 -58q0 -38 27 -63t69 -25z" />
    <glyph glyph-name="seven.numr" horiz-adv-x="313" 
d="M296 682v-34l-177 -347h-62l167 329h-204v52h276z" />
    <glyph glyph-name="eight.numr" horiz-adv-x="393" 
d="M277 506q70 -29 70 -95q0 -51 -41 -82.5t-110 -31.5q-68 0 -109 31.5t-41 82.5q0 66 70 95q-54 28 -54 83q0 46 38 75.5t96 29.5q59 0 97 -29.5t38 -75.5q0 -58 -54 -83zM196 651q-34 0 -57 -18.5t-23 -46.5q0 -30 22.5 -47.5t57.5 -17.5q36 0 58.5 17.5t22.5 47.5
q0 28 -23 46.5t-58 18.5zM196 343q41 0 66 19.5t25 51.5q0 31 -25 50t-66 19q-40 0 -65 -19t-25 -50q0 -32 25 -51.5t65 -19.5z" />
    <glyph glyph-name="nine.numr" horiz-adv-x="372" 
d="M187 695q65 0 107 -38t42 -95q0 -42 -34 -91l-118 -165h-64l88 125q-7 -1 -22 -1q-65 0 -106 37t-41 94q0 58 41.5 96t106.5 38zM258 503l2 2q23 28 23 58q0 38 -27 63t-69 25q-41 0 -67.5 -24.5t-26.5 -62.5t26.5 -62t67.5 -24q46 0 71 25z" />
    <glyph glyph-name="backslash.case" horiz-adv-x="370" 
d="M33 730h71l233 -777h-71z" />
    <glyph glyph-name="bullet.case" horiz-adv-x="318" 
d="M158 218q-46 0 -80 34t-34 80t34 80t80 34q47 0 81.5 -34t34.5 -80t-34.5 -80t-81.5 -34z" />
    <glyph glyph-name="exclamdown.case" horiz-adv-x="263" 
d="M131 688q20 0 34 -13t14 -33q0 -19 -14 -32t-34 -13t-33.5 13t-13.5 32q0 20 13.5 33t33.5 13zM95 0l5 495h62l5 -495h-72z" />
    <glyph glyph-name="periodcentered.case" horiz-adv-x="177" 
d="M88 286q-19 0 -33 13.5t-14 33.5q0 19 14 32t33 13q20 0 34 -13t14 -32q0 -20 -14 -33.5t-34 -13.5z" />
    <glyph glyph-name="questiondown.case" horiz-adv-x="567" 
d="M319 688q20 0 33.5 -13t13.5 -33q0 -19 -13.5 -32t-33.5 -13t-33.5 13t-13.5 32q0 20 13.5 33t33.5 13zM346 491l6 -145h-44q-70 0 -115.5 -42.5t-45.5 -106.5t43 -106.5t111 -42.5q53 0 94 31.5t51 81.5h70q-12 -79 -69.5 -126.5t-142.5 -47.5q-97 0 -160.5 59.5
t-63.5 149.5q0 85 57 140.5t151 59.5l2 95h56z" />
    <glyph glyph-name="slash.case" horiz-adv-x="370" 
d="M46 -47l233 777h71l-233 -777h-71z" />
    <glyph glyph-name="braceleft.case" horiz-adv-x="356" 
d="M208 570v-90q0 -59 -16 -90.5t-57 -45.5q41 -14 57 -45.5t16 -90.5v-90q0 -49 27.5 -79t73.5 -30v-66q-76 0 -122.5 48t-46.5 127v88q0 62 -23 84.5t-78 22.5v62q55 0 78 22.5t23 84.5v88q0 79 46.5 127t122.5 48v-66q-46 0 -73.5 -30t-27.5 -79z" />
    <glyph glyph-name="braceright.case" horiz-adv-x="362" 
d="M155 480v90q0 49 -27.5 79t-73.5 30v66q76 0 122.5 -48t46.5 -127v-88q0 -62 22.5 -84.5t78.5 -22.5v-62q-56 0 -78.5 -22.5t-22.5 -84.5v-88q0 -79 -46.5 -127t-122.5 -48v66q46 0 73.5 30t27.5 79v90q0 59 15.5 90.5t56.5 45.5q-41 14 -56.5 45.5t-15.5 90.5z" />
    <glyph glyph-name="bracketleft.case" horiz-adv-x="349" 
d="M164 18h138v-66h-206v778h206v-65h-138v-647z" />
    <glyph glyph-name="bracketright.case" horiz-adv-x="335" 
d="M33 665v65h206v-778h-206v66h138v647h-138z" />
    <glyph glyph-name="parenleft.case" horiz-adv-x="339" 
d="M137 337q0 -115 38 -189t127 -153l-44 -45q-100 82 -146 172t-46 215q0 126 46.5 218.5t145.5 173.5l44 -45q-88 -79 -126.5 -155.5t-38.5 -191.5z" />
    <glyph glyph-name="parenright.case" horiz-adv-x="339" 
d="M37 684l43 45q100 -81 146.5 -173.5t46.5 -218.5q0 -125 -46.5 -215t-146.5 -172l-43 45q89 79 127 153t38 189t-38.5 191.5t-126.5 155.5z" />
    <glyph glyph-name="emdash.case" horiz-adv-x="948" 
d="M859 371v-68h-770v68h770z" />
    <glyph glyph-name="endash.case" horiz-adv-x="731" 
d="M614 370v-68h-497v68h497z" />
    <glyph glyph-name="hyphen.case" horiz-adv-x="563" 
d="M446 370v-68h-329v68h329z" />
    <glyph glyph-name="guillemotleft.case" horiz-adv-x="429" 
d="M222 486l-109 -148l109 -149h-68l-109 149l109 148h68zM384 486l-109 -148l109 -149h-68l-110 149l110 148h68z" />
    <glyph glyph-name="guillemotright.case" horiz-adv-x="429" 
d="M222 338l-109 -149h-68l109 149l-109 148h68zM384 338l-109 -149h-69l110 149l-110 148h69z" />
    <glyph glyph-name="guilsinglleft.case" horiz-adv-x="267" 
d="M222 486l-109 -148l109 -149h-68l-109 149l109 148h68z" />
    <glyph glyph-name="guilsinglright.case" horiz-adv-x="267" 
d="M222 338l-109 -149h-68l109 149l-109 148h68z" />
    <glyph glyph-name="florin.tf" horiz-adv-x="606" 
d="M470 622q-93 0 -108 -111l-19 -144h170v-58h-178l-28 -221q-11 -81 -53 -127.5t-114 -46.5q-47 0 -95 14l10 59q43 -10 74 -10q47 0 74 29.5t33 81.5l29 221h-130v58h138l19 144q11 81 53 127.5t114 46.5q47 0 95 -14l-11 -59q-42 10 -73 10z" />
    <glyph glyph-name="cent.tf" horiz-adv-x="606" 
d="M305 50q56 0 95.5 28.5t50.5 75.5h71q-13 -67 -63 -111.5t-122 -53.5v-115h-63v115q-93 10 -151.5 78t-58.5 164q0 95 58.5 163t151.5 78v127h63v-127q72 -9 122 -53.5t63 -111.5h-71q-11 47 -50.5 75.5t-95.5 28.5q-76 0 -124 -52t-48 -128q0 -77 48 -129t124 -52z" />
    <glyph glyph-name="dollar.tf" horiz-adv-x="606" 
d="M275 388l103 -20q189 -36 189 -177q0 -86 -60 -141.5t-160 -63.5v-117h-63v117q-110 8 -176 68t-77 163h70q13 -80 68 -124t148 -44q81 0 129.5 36.5t48.5 97.5q0 93 -128 116l-118 23q-93 17 -140.5 62.5t-47.5 115.5q0 84 61 137t162 58v121h63v-123q91 -10 150 -60.5
t70 -136.5h-70q-12 65 -59.5 101t-130.5 36q-78 0 -124.5 -35t-46.5 -94q0 -91 139 -116z" />
    <glyph glyph-name="Euro.tf" horiz-adv-x="606" 
d="M353 49q95 0 138 62h86q-30 -59 -88 -92.5t-136 -33.5q-110 0 -183.5 66t-98.5 179h-58v51h50q-3 29 -3 59q0 27 1 40h-48v51h54q21 122 96 193t190 71q84 0 144.5 -38t89.5 -106h-81q-20 38 -60.5 59t-92.5 21q-85 0 -140 -53.5t-73 -146.5h311l-13 -51h-304
q-2 -26 -2 -40q0 -30 3 -59h278l-13 -51h-255q21 -85 74 -133t134 -48z" />
    <glyph glyph-name="sterling.tf" horiz-adv-x="606" 
d="M173 60h391v-60h-534v60h75v223h-75v60h75v123q0 103 64 166t170 63q96 0 159 -53.5t73 -143.5h-70q-9 63 -52.5 99.5t-109.5 36.5q-75 0 -120.5 -46t-45.5 -122v-123h239v-60h-239v-223z" />
    <glyph glyph-name="yen.tf" horiz-adv-x="606" 
d="M349 263h173v-53h-184v-67h184v-53h-184v-90h-72v90h-185v53h185v67h-185v53h174l-225 417h79l193 -363l192 363h79z" />
    <glyph glyph-name="arrowdown.ss05" horiz-adv-x="686" 
d="M386 201l-43 -43l-247 249l42 43l205 -206l205 205l42 -43z" />
    <glyph glyph-name="arrowleft.ss05" horiz-adv-x="686" 
d="M548 164l-205 205l-205 -206l-42 43l247 249l43 -43l204 -205z" />
    <glyph glyph-name="arrowright.ss05" horiz-adv-x="571" 
d="M209 344l204 -205l-43 -42l-247 247l248 247l43 -42z" />
    <glyph glyph-name="arrowup.ss05" horiz-adv-x="559" 
d="M436 344l-247 -247l-43 42l205 205l-206 205l43 42z" />
    <glyph glyph-name="at.case" horiz-adv-x="990" 
d="M679 484v-216q0 -109 74 -109q51 0 79 42.5t28 112.5q0 146 -106 247.5t-257 101.5t-258.5 -103.5t-107.5 -252.5q0 -150 107.5 -253t256.5 -103q132 0 233 82l30 -44q-112 -89 -262 -89q-114 0 -209.5 52.5t-152.5 146.5t-57 208q0 173 123 290t297 117
q175 0 295.5 -115t120.5 -283q0 -93 -40.5 -151.5t-119.5 -58.5q-89 0 -119 69q-57 -72 -152 -72q-82 0 -138.5 56.5t-56.5 141.5t56 141t139 56q80 0 135 -53v39h62zM491 159q81 0 129 71q-3 24 -3 50v96q-47 67 -126 67q-58 0 -99.5 -39.5t-41.5 -102.5t41.5 -102.5
t99.5 -39.5z" />
    <glyph glyph-name="bar.case" horiz-adv-x="311" 
d="M188 730v-777h-65v777h65z" />
    <glyph glyph-name="brokenbar.case" horiz-adv-x="311" 
d="M188 392h-65v338h65v-338zM188 -47h-65v337h65v-337z" />
    <glyph glyph-name="registered.ss07" horiz-adv-x="859" 
d="M430 695q150 0 257 -102t107 -253t-107 -253t-257 -102t-257 102t-107 253t107 253t257 102zM429 33q128 0 221 89t93 218t-93 218t-221 89t-220.5 -89t-92.5 -218t92.5 -218t220.5 -89zM582 406q0 -43 -27 -72.5t-73 -39.5l110 -129h-57l-105 125h-79v-125h-45v360h134
q63 0 102.5 -33t39.5 -86zM351 330h88q44 0 70 20.5t26 55.5t-26 56t-70 21h-88v-153z" />
    <glyph glyph-name="caron.alt" 
d="M333 680l-26 -185h-53l10 185h69z" />
    <glyph glyph-name="acute.case" 
d="M415 883l-93 -142h-64l81 142h76z" />
    <glyph glyph-name="breve.case" 
d="M390 886h52q0 -66 -41 -102.5t-101 -36.5t-101 36.5t-41 102.5h52q0 -45 26.5 -68t63.5 -23t63.5 23t26.5 68z" />
    <glyph glyph-name="caron.case" 
d="M458 883l-123 -144h-70l-123 144h67l91 -101l91 101h67z" />
    <glyph glyph-name="circumflex.case" 
d="M300 839l-91 -100h-67l123 144h70l123 -144h-67z" />
    <glyph glyph-name="dieresis.case" 
d="M207 856q20 0 34.5 -14t14.5 -34t-14.5 -34t-34.5 -14q-21 0 -35 14t-14 34t14 34t35 14zM394 856q20 0 34.5 -14t14.5 -34t-14.5 -34t-34.5 -14q-21 0 -35 14t-14 34t14 34t35 14z" />
    <glyph glyph-name="dotaccent.case" 
d="M300 760q-20 0 -34.5 14t-14.5 34t14.5 34t34.5 14t34.5 -14t14.5 -34t-14.5 -34t-34.5 -14z" />
    <glyph glyph-name="grave.case" 
d="M364 741h-64l-93 142h76z" />
    <glyph glyph-name="hungarumlaut.case" 
d="M342 883l-83 -142h-60l71 142h72zM477 883l-84 -142h-59l72 142h71z" />
    <glyph glyph-name="macron.case" 
d="M438 816v-56h-277v56h277z" />
    <glyph glyph-name="ring.case" 
d="M299 944q44 0 71.5 -26.5t27.5 -68.5t-28 -69t-71 -27q-44 0 -72 27t-28 69t28 68.5t72 26.5zM299 792q25 0 41 16t16 41q0 24 -16 40.5t-41 16.5t-41.5 -16.5t-16.5 -40.5q0 -25 16.5 -41t41.5 -16z" />
    <glyph glyph-name="tilde.case" 
d="M396 860h56q0 -46 -24.5 -73t-56.5 -26t-63 18l-42 27q-28 19 -50 9.5t-22 -39.5h-56q0 46 25.5 72.5t57.5 25t61 -16.5l42 -27q31 -20 51.5 -10t20.5 40z" />
    </font>
</defs>
</svg>
